<?xml version="1.0" encoding="utf-8"?>
<!-- Generator: Adobe Illustrator 21.1.0, SVG Export Plug-In . SVG Version: 6.00 Build 0)  -->
<svg version="1.1" id="Layer_1" xmlns="http://www.w3.org/2000/svg" xmlns:xlink="http://www.w3.org/1999/xlink" x="0px" y="0px"
	 viewBox="0 0 26 32" style="enable-background:new 0 0 26 32;" xml:space="preserve">
<path style="fill:#43474F;" d="M9.3,9.3c0-0.7,0.2-1.4,0.5-2c0.3-0.6,0.8-1.2,1.2-1.9c0.5-0.6,0.9-1.3,1.3-1.9
	c0.4-0.7,0.7-1.4,0.9-2.3c0.3,0.9,0.6,1.6,1,2.3c0.5,0.7,0.9,1.3,1.3,1.9c0.5,0.6,0.8,1.2,1.2,1.9c0.3,0.6,0.5,1.3,0.5,2
	c0,0.8-0.1,1.5-0.5,2.3c-0.3,0.8-0.7,1.5-1.1,2.3c-0.4,0.8-0.8,1.6-1.2,2.5c-0.4,0.9-0.5,1.7-0.5,2.7h-1.3c0-0.9-0.2-1.8-0.5-2.7
	c-0.3-0.9-0.7-1.7-1.1-2.6c-0.4-0.8-0.8-1.6-1.1-2.3C9.4,10.7,9.3,10,9.3,9.3L9.3,9.3z M1.2,20.8c0.3-0.4,0.4-0.8,0.5-1.3
	C1.8,19,1.9,18.5,2,18c0.1-0.5,0.2-1,0.3-1.5c0.1-0.5,0.3-0.9,0.5-1.3c0.2-0.4,0.6-0.7,1-1c0.5-0.3,1.1-0.4,1.8-0.5
	c0.7,0,1.3,0,2,0.2c0.7,0.1,1.3,0.4,1.8,0.8c0.5,0.4,1,1,1.3,1.7c0.3,0.7,0.5,1.6,0.6,2.6H10c0-0.3-0.2-0.6-0.4-0.9
	c-0.3-0.3-0.5-0.6-0.8-0.8c-0.3-0.2-0.6-0.3-1-0.4c-0.4-0.1-0.8-0.1-1.1,0c-0.5,0.1-0.9,0.4-1.1,0.8c-0.2,0.4-0.5,0.8-0.8,1.3
	c-0.3,0.5-0.7,0.8-1.2,1.2C3.1,20.6,2.3,20.8,1.2,20.8L1.2,20.8z M8.8,21.8c-0.4,0-0.7-0.1-0.9-0.3c-0.2-0.2-0.3-0.4-0.3-0.6
	c0-0.3,0.1-0.5,0.3-0.6c0.2-0.2,0.5-0.3,0.9-0.3h8.8c0.5,0,0.8,0.1,1,0.3c0.2,0.2,0.3,0.4,0.3,0.6c0,0.2-0.1,0.4-0.3,0.6
	c-0.2,0.2-0.5,0.3-0.9,0.3L8.8,21.8z M6.8,26c0.4,0,0.8-0.1,1.2-0.3c0.3-0.2,0.7-0.5,1-0.8c0.3-0.3,0.5-0.6,0.8-1
	c0.2-0.3,0.3-0.7,0.3-1h1.3c-0.1,1.1-0.4,2-0.9,2.7c-0.4,0.7-1,1.1-1.8,1.2c-0.2,0-0.3,0-0.5,0c-0.2,0-0.4-0.1-0.6-0.1
	c-0.2-0.1-0.3-0.1-0.5-0.3C6.9,26.3,6.8,26.2,6.8,26L6.8,26z M15.2,19.2c-0.1-0.8,0-1.6,0.3-2.2c0.3-0.7,0.6-1.2,1.2-1.7
	c0.5-0.5,1.2-0.8,1.9-1c0.8-0.2,1.6-0.3,2.6-0.3c1,0.1,1.7,0.4,2.1,0.9c0.5,0.5,0.8,1.1,0.9,1.8c0.2,0.7,0.3,1.4,0.3,2.2
	c0.1,0.8,0.2,1.5,0.5,2.1c-0.5,0-1,0-1.4-0.2c-0.4-0.2-0.8-0.4-1.1-0.7c-0.3-0.3-0.6-0.6-0.9-1c-0.3-0.3-0.5-0.7-0.7-1
	c-0.2-0.3-0.5-0.6-0.7-0.8c-0.3-0.2-0.5-0.4-0.9-0.4c-0.5-0.1-1-0.1-1.4,0c-0.4,0.1-0.7,0.3-0.9,0.5c-0.2,0.3-0.4,0.5-0.5,0.9
	c-0.1,0.3-0.1,0.7-0.1,1.1H15.2z M11.7,27.3c0-0.4,0.1-0.7,0.2-1.1c0.1-0.4,0.2-0.7,0.3-1.1c0.1-0.4,0.3-0.7,0.3-1.1
	c0.1-0.4,0.1-0.8,0.1-1.2H14c0,0.4,0.1,0.8,0.2,1.2c0.1,0.4,0.2,0.7,0.3,1.1c0.1,0.4,0.2,0.7,0.3,1.1c0,0.3,0.1,0.7,0.1,1
	c0,0.2,0,0.5,0,0.7c0,0.3-0.1,0.5-0.2,0.8c-0.1,0.3-0.2,0.5-0.4,0.8c-0.2,0.3-0.5,0.6-0.9,0.9c-0.5-0.3-1-0.8-1.2-1.3
	C11.8,28.4,11.7,27.9,11.7,27.3L11.7,27.3z M15.4,22.8h1.4c0,0.3,0.1,0.7,0.3,1c0.2,0.3,0.4,0.7,0.7,1c0.3,0.3,0.5,0.6,0.9,0.8
	c0.3,0.2,0.7,0.4,1,0.5c-0.2,0.4-0.5,0.6-0.8,0.7c-0.3,0.1-0.6,0.1-1,0c-0.5-0.1-0.9-0.3-1.2-0.6c-0.3-0.3-0.5-0.5-0.7-0.9
	c-0.2-0.3-0.3-0.7-0.5-1.1C15.5,23.7,15.4,23.3,15.4,22.8L15.4,22.8z M4,16.5h0.1c0.1,0,0.2-0.1,0.2-0.1c0-0.1-0.1-0.2-0.2-0.2H4
	c-0.2,0-0.2,0.1-0.2,0.2C3.8,16.5,3.8,16.6,4,16.5L4,16.5z M22.5,16.3c0,0.1,0.1,0.2,0.3,0.2c0.2,0,0.2-0.1,0.2-0.2v-0.1
	c0-0.1-0.1-0.1-0.3-0.1c-0.2,0-0.3,0.1-0.3,0.1L22.5,16.3z"/>
</svg>
