<?xml version="1.0" encoding="utf-8"?>
<!-- Generator: Adobe Illustrator 21.1.0, SVG Export Plug-In . SVG Version: 6.00 Build 0)  -->
<svg version="1.1" id="Layer_1" xmlns="http://www.w3.org/2000/svg" xmlns:xlink="http://www.w3.org/1999/xlink" x="0px" y="0px"
	 viewBox="0 0 273.2 235" style="enable-background:new 0 0 273.2 235;" xml:space="preserve">
<g>
	<g>
		<g>
			<path style="fill:#43474F;" d="M54.7,77.6V60.4h2.2v17.2H54.7z"/>
			<path style="fill:#43474F;" d="M76.5,77.6h-2.2v-9.3l-1.8,5.6h-1.8L69,68.3v9.3h-2.3V60.4h2.2l2.6,8.6l2.7-8.6h2.2V77.6z"/>
			<path style="fill:#43474F;" d="M92.6,60.4v17.2h-2.2v-15h-1.9v15h-2.2V60.4H92.6z"/>
			<path style="fill:#43474F;" d="M101.9,76.1V61.8c0-0.4,0.1-0.7,0.4-1c0.3-0.3,0.6-0.4,1-0.4h3.3c0.4,0,0.8,0.1,1,0.4
				c0.3,0.3,0.4,0.6,0.4,1v14.3c0,0.4-0.1,0.7-0.4,1c-0.3,0.3-0.6,0.4-1,0.4h-3.3c-0.4,0-0.7-0.1-1-0.4
				C102,76.9,101.9,76.5,101.9,76.1z M106,75.4V62.6h-1.9v12.8H106z"/>
			<path style="fill:#43474F;" d="M118,60.4h4.8c0.4,0,0.8,0.1,1,0.4c0.3,0.3,0.4,0.6,0.4,1v6.5c0,0.4-0.1,0.7-0.4,1
				c-0.3,0.3-0.6,0.4-1,0.4h-2.6v7.8H118V60.4z M122,67.5v-5h-1.9v5H122z"/>
			<path style="fill:#43474F;" d="M134.8,77.6v-15h-2v-2.2h6.1v2.2h-2v15H134.8z"/>
			<path style="fill:#43474F;" d="M148,76.1V61.8c0-0.4,0.1-0.7,0.4-1c0.3-0.3,0.6-0.4,1-0.4h3.3c0.4,0,0.8,0.1,1,0.4
				c0.3,0.3,0.4,0.6,0.4,1v14.3c0,0.4-0.1,0.7-0.4,1c-0.3,0.3-0.6,0.4-1,0.4h-3.3c-0.4,0-0.7-0.1-1-0.4
				C148.2,76.9,148,76.5,148,76.1z M152.1,75.4V62.6h-1.9v12.8H152.1z"/>
			<path style="fill:#43474F;" d="M164.1,77.6V60.4h4.6c0.4,0,0.8,0.1,1,0.4c0.3,0.3,0.4,0.6,0.4,1v5.5c0,0.7-0.3,1.1-0.8,1.2
				c0.3,0.1,0.6,0.2,0.8,0.5c0.2,0.3,0.3,0.6,0.3,0.9v6.1c0,0.4-0.1,0.7-0.4,1c-0.3,0.3-0.6,0.4-1,0.4H164.1z M166.3,62.6v5h1.6v-5
				H166.3z M166.3,75.4h1.9v-5.6h-1.9V75.4z"/>
			<path style="fill:#43474F;" d="M184.9,77.6l-0.3-3.4h-2.5l-0.3,3.4h-2.2l1.8-17.2h3.9l1.8,17.2H184.9z M183.3,62.6l-1,9.4h2
				L183.3,62.6z"/>
			<path style="fill:#43474F;" d="M196.2,77.6V60.4h2.2v7.9h1.9v-7.9h2.2v17.2h-2.2v-7.1h-1.9v7.1H196.2z"/>
			<path style="fill:#43474F;" d="M212.3,76.1V61.8c0-0.4,0.1-0.7,0.4-1c0.3-0.3,0.6-0.4,1-0.4h3.3c0.4,0,0.8,0.1,1,0.4
				c0.3,0.3,0.4,0.6,0.4,1v14.3c0,0.4-0.1,0.7-0.4,1c-0.3,0.3-0.6,0.4-1,0.4h-3.3c-0.4,0-0.7-0.1-1-0.4
				C212.5,76.9,212.3,76.5,212.3,76.1z M216.4,75.4V62.6h-1.9v12.8H216.4z"/>
		</g>
	</g>
	<g>
		<g>
			<path style="fill:#43474F;" d="M129.6,133.1h2.2v6.6l1.7-6.6h2.4l-2.4,8.1l2.6,9.3h-2.3l-2.1-7.6v7.6h-2.2V133.1z"/>
			<path style="fill:#43474F;" d="M144.6,150.5h-2.2v-17.4h5.6v2.2h-3.4V150.5z"/>
		</g>
	</g>
	<g>
		<path style="fill:#B73041;" d="M82.1,121.9c0,1.7-0.6,3.2-1.9,4.3c-1.3,1.1-2.9,1.7-4.8,1.7c-1.9,0-3.6-0.6-4.8-1.7
			c-1.3-1.1-1.9-2.5-1.9-4.3v-6.6h4.7v9.2c0,1.6,0.7,2.3,2.1,2.3c1.4,0,2.1-0.8,2.1-2.3v-15.6c0-0.6-0.2-1.2-0.7-1.7
			c-0.5-0.5-1-0.7-1.7-0.7h-3.6v-1.1h3.6c0.6,0,1.2-0.2,1.7-0.7c0.5-0.5,0.7-1,0.7-1.7V89.8c0-1.6-0.7-2.3-2.1-2.3
			c-1.4,0-2.1,0.8-2.1,2.3v9.2h-4.7v-6.6c0-1.7,0.6-3.1,1.9-4.3c1.3-1.1,2.9-1.7,4.8-1.7c1.9,0,3.6,0.6,4.8,1.7
			c1.3,1.1,1.9,2.6,1.9,4.3v8.2c0,2.5-1.4,4.4-4.1,5.4c2.7,1.1,4.1,3,4.1,5.4V121.9z M71.6,88.2c-1.3,0.9-1.9,2.1-1.9,3.6v6h1.2
			v-6.7C70.9,89.9,71.1,89,71.6,88.2z M71.6,126c-0.5-0.7-0.8-1.7-0.8-2.9v-6.7h-1.2v6C69.7,123.9,70.3,125.1,71.6,126z M79.8,101.5
			V91.3c0-1.6-0.7-2.8-2.1-3.7c0.6,0.7,0.9,1.7,0.9,2.9v11.7c0,1.2-0.3,2.2-0.9,2.9C79.1,104.2,79.8,103,79.8,101.5z M79.8,122.9
			v-12.4c0-1.6-0.7-2.8-2.1-3.7c0.6,0.7,0.9,1.7,0.9,2.9v14.1c0,1.2-0.3,2.1-0.9,2.9C79.1,125.7,79.8,124.4,79.8,122.9z"/>
		<path style="fill:#B73041;" d="M108.4,121.9c0,1.6-0.7,3-2.1,4.2c-1.4,1.2-3,1.8-5,1.8c-1.9,0-3.6-0.6-4.9-1.8
			c-1.4-1.2-2.1-2.6-2.1-4.2v-6.6H99v9.2c0,0.6,0.2,1.2,0.7,1.7c0.5,0.5,1,0.7,1.7,0.7s1.2-0.2,1.7-0.7c0.5-0.5,0.7-1,0.7-1.7v-15.6
			c0-0.6-0.2-1.2-0.7-1.7c-0.5-0.5-1-0.7-1.7-0.7h-6.7V86.7h13.1v12.3h-4.7V87.7h-3.8v17.7h2c1.9,0,3.6,0.6,5,1.8
			c1.4,1.2,2.1,2.6,2.1,4.2V121.9z M97.4,125.8c-0.5-0.7-0.8-1.7-0.8-2.8v-6.6h-1.2v6C95.5,123.8,96.2,124.9,97.4,125.8z M97,105.4
			V87.7h-1.2v17.7H97z M106,122.8v-12.4c0-1.6-0.7-2.8-2.1-3.7c0.6,0.7,0.9,1.7,0.9,2.9v14c0,1.2-0.3,2.1-0.9,2.9
			C105.3,125.6,106,124.4,106,122.8z M105.5,97.9V87.7h-1.2v10.2H105.5z"/>
		<path style="fill:#B73041;" d="M125.9,121.9c0,1.6-0.7,3-2.1,4.2c-1.4,1.2-3,1.8-5,1.8c-1.9,0-3.6-0.6-4.9-1.8
			c-1.4-1.2-2.1-2.6-2.1-4.2V92.3c0-1.6,0.7-3,2.1-4.2c1.4-1.2,3-1.8,4.9-1.8c1.9,0,3.6,0.6,5,1.8c1.4,1.2,2.1,2.6,2.1,4.2V121.9z
			 M115,125.8c-0.5-0.7-0.8-1.7-0.8-2.8V91.2c0-1.1,0.3-2.1,0.8-2.8c-1.3,0.9-1.9,2-1.9,3.5v30.4C113,123.8,113.7,124.9,115,125.8z
			 M121.2,124.5V89.8c0-0.6-0.2-1.2-0.7-1.7c-0.5-0.5-1-0.7-1.7-0.7s-1.2,0.2-1.7,0.7s-0.7,1-0.7,1.7v34.7c0,0.6,0.2,1.2,0.7,1.7
			c0.5,0.5,1,0.7,1.7,0.7s1.2-0.2,1.7-0.7C121,125.6,121.2,125.1,121.2,124.5z M123.5,122.8V91.4c0-1.6-0.7-2.8-2.1-3.7
			c0.6,0.7,0.9,1.7,0.9,2.9v33.1c0,1.2-0.3,2.1-0.9,2.9C122.8,125.6,123.5,124.4,123.5,122.8z"/>
		<path style="fill:#B73041;" d="M143.4,121.9c0,1.6-0.7,3-2.1,4.2c-1.4,1.2-3,1.8-5,1.8c-1.9,0-3.6-0.6-4.9-1.8
			c-1.4-1.2-2.1-2.6-2.1-4.2V92.3c0-1.6,0.7-3,2.1-4.2c1.4-1.2,3-1.8,4.9-1.8c1.9,0,3.6,0.6,5,1.8c1.4,1.2,2.1,2.6,2.1,4.2V121.9z
			 M132.5,125.8c-0.5-0.7-0.8-1.7-0.8-2.8V91.2c0-1.1,0.3-2.1,0.8-2.8c-1.3,0.9-1.9,2-1.9,3.5v30.4
			C130.5,123.8,131.2,124.9,132.5,125.8z M138.7,124.5V89.8c0-0.6-0.2-1.2-0.7-1.7c-0.5-0.5-1-0.7-1.7-0.7s-1.2,0.2-1.7,0.7
			s-0.7,1-0.7,1.7v34.7c0,0.6,0.2,1.2,0.7,1.7c0.5,0.5,1,0.7,1.7,0.7s1.2-0.2,1.7-0.7C138.5,125.6,138.7,125.1,138.7,124.5z
			 M141.1,122.8V91.4c0-1.6-0.7-2.8-2.1-3.7c0.6,0.7,0.9,1.7,0.9,2.9v33.1c0,1.2-0.3,2.1-0.9,2.9
			C140.4,125.6,141.1,124.4,141.1,122.8z"/>
		<path style="fill:#B73041;" d="M169.7,121.9c0,1.6-0.7,3-2.1,4.2c-1.4,1.2-3,1.8-5,1.8c-1.9,0-3.6-0.6-4.9-1.8
			c-1.4-1.2-2.1-2.6-2.1-4.2V92.3c0-1.6,0.7-3,2.1-4.2c1.4-1.2,3-1.8,4.9-1.8c1.9,0,3.6,0.6,5,1.8c1.4,1.2,2.1,2.6,2.1,4.2V121.9z
			 M158.8,125.8c-0.5-0.7-0.8-1.7-0.8-2.8V91.2c0-1.1,0.3-2.1,0.8-2.8c-1.3,0.9-1.9,2-1.9,3.5v30.4
			C156.8,123.8,157.5,124.9,158.8,125.8z M165,124.5V89.8c0-0.6-0.2-1.2-0.7-1.7c-0.5-0.5-1-0.7-1.7-0.7s-1.2,0.2-1.7,0.7
			s-0.7,1-0.7,1.7v34.7c0,0.6,0.2,1.2,0.7,1.7c0.5,0.5,1,0.7,1.7,0.7s1.2-0.2,1.7-0.7C164.8,125.6,165,125.1,165,124.5z
			 M167.3,122.8V91.4c0-1.6-0.7-2.8-2.1-3.7c0.6,0.7,0.9,1.7,0.9,2.9v33.1c0,1.2-0.3,2.1-0.9,2.9
			C166.6,125.6,167.3,124.4,167.3,122.8z"/>
		<path style="fill:#B73041;" d="M187.2,121.9c0,1.6-0.7,3-2.1,4.2c-1.4,1.2-3,1.8-5,1.8c-1.9,0-3.6-0.6-4.9-1.8
			c-1.4-1.2-2.1-2.6-2.1-4.2V92.3c0-1.6,0.7-3,2.1-4.2c1.4-1.2,3-1.8,4.9-1.8c1.9,0,3.6,0.6,5,1.8c1.4,1.2,2.1,2.6,2.1,4.2V121.9z
			 M176.3,125.8c-0.5-0.7-0.8-1.7-0.8-2.8V91.2c0-1.1,0.3-2.1,0.8-2.8c-1.3,0.9-1.9,2-1.9,3.5v30.4
			C174.3,123.8,175,124.9,176.3,125.8z M182.5,124.5V89.8c0-0.6-0.2-1.2-0.7-1.7c-0.5-0.5-1-0.7-1.7-0.7s-1.2,0.2-1.7,0.7
			s-0.7,1-0.7,1.7v34.7c0,0.6,0.2,1.2,0.7,1.7c0.5,0.5,1,0.7,1.7,0.7s1.2-0.2,1.7-0.7C182.3,125.6,182.5,125.1,182.5,124.5z
			 M184.9,122.8V91.4c0-1.6-0.7-2.8-2.1-3.7c0.6,0.7,0.9,1.7,0.9,2.9v33.1c0,1.2-0.3,2.1-0.9,2.9
			C184.1,125.6,184.9,124.4,184.9,122.8z"/>
		<path style="fill:#B73041;" d="M204.7,121.9c0,1.6-0.7,3-2.1,4.2c-1.4,1.2-3,1.8-5,1.8c-1.9,0-3.6-0.6-4.9-1.8
			c-1.4-1.2-2.1-2.6-2.1-4.2V92.3c0-1.6,0.7-3,2.1-4.2c1.4-1.2,3-1.8,4.9-1.8c1.9,0,3.6,0.6,5,1.8c1.4,1.2,2.1,2.6,2.1,4.2V121.9z
			 M193.8,125.8c-0.5-0.7-0.8-1.7-0.8-2.8V91.2c0-1.1,0.3-2.1,0.8-2.8c-1.3,0.9-1.9,2-1.9,3.5v30.4
			C191.8,123.8,192.5,124.9,193.8,125.8z M200,124.5V89.8c0-0.6-0.2-1.2-0.7-1.7c-0.5-0.5-1-0.7-1.7-0.7s-1.2,0.2-1.7,0.7
			s-0.7,1-0.7,1.7v34.7c0,0.6,0.2,1.2,0.7,1.7c0.5,0.5,1,0.7,1.7,0.7s1.2-0.2,1.7-0.7C199.8,125.6,200,125.1,200,124.5z
			 M202.4,122.8V91.4c0-1.6-0.7-2.8-2.1-3.7c0.6,0.7,0.9,1.7,0.9,2.9v33.1c0,1.2-0.3,2.1-0.9,2.9
			C201.7,125.6,202.4,124.4,202.4,122.8z"/>
	</g>
	<g>
		<path style="fill:#43474F;" d="M61.8,127.6h-0.9c-1.9,0-3.5-0.6-4.7-1.7c-1.3-1.2-1.9-2.6-1.9-4.2v-12.8c0-0.6-0.2-1.2-0.7-1.7
			c-0.5-0.5-1-0.7-1.7-0.7h-0.6v-1.1H52c0.6,0,1.2-0.2,1.7-0.7c0.5-0.5,0.7-1,0.7-1.7V92.6c0-1.7,0.6-3.1,1.9-4.2
			c1.3-1.2,2.8-1.7,4.7-1.7h0.9v1.1h-0.9c-1.4,0-2.1,0.8-2.1,2.3v10.5c0,2.5-1.4,4.4-4.1,5.4c2.7,1.1,4.1,3,4.1,5.4v12.8
			c0,1.6,0.7,2.3,2.1,2.3h0.9V127.6z M57.4,88.6c-1.3,0.9-1.9,2.1-1.9,3.6v10c0,1.2-0.3,2.2-0.9,2.9c1.4-0.9,2.1-2.1,2.1-3.7v-10
			C56.6,90.3,56.9,89.3,57.4,88.6z M57.4,125.6c-0.5-0.7-0.8-1.7-0.8-2.9v-12.3c0-1.6-0.7-2.8-2.1-3.7c0.6,0.7,0.9,1.7,0.9,2.9V122
			C55.4,123.5,56.1,124.7,57.4,125.6z"/>
	</g>
	<g>
		<path style="fill:#43474F;" d="M221.6,106.5H221c-0.6,0-1.2,0.2-1.7,0.7c-0.5,0.5-0.7,1-0.7,1.7v12.8c0,1.7-0.6,3.1-1.9,4.2
			c-1.2,1.2-2.8,1.7-4.7,1.7h-0.9v-1.1h0.9c1.4,0,2-0.8,2-2.3v-12.8c0-2.5,1.4-4.3,4.1-5.4c-2.7-1.1-4.1-2.9-4.1-5.4V90
			c0-1.6-0.7-2.3-2-2.3h-0.9v-1.1h0.9c1.9,0,3.5,0.6,4.7,1.7c1.2,1.2,1.9,2.6,1.9,4.2v10.5c0,0.6,0.2,1.2,0.7,1.7
			c0.5,0.5,1,0.7,1.7,0.7h0.6V106.5z M217.3,104.5c-0.6-0.7-0.9-1.8-0.9-3.2v-9.7c0-1.6-0.7-2.9-2.1-3.8c0.6,0.7,0.9,1.7,0.9,2.9
			v9.7C215.2,102.3,215.9,103.6,217.3,104.5z M217.3,107.3c-1.4,0.9-2.1,2.2-2.1,4v12c0,1.3-0.3,2.2-0.9,2.9
			c1.4-0.9,2.1-2.1,2.1-3.7v-12C216.4,109.1,216.7,108.1,217.3,107.3z"/>
	</g>
	<g>
		<g>
			<path style="fill:#43474F;" d="M65.5,175h-2v-13.5h-8V175h-2v-15.3h12V175z"/>
			<path style="fill:#43474F;" d="M75.3,159.7H81c1.3,0,2.3,0.1,3.1,0.3s1.5,0.7,2,1.5s0.7,1.6,0.7,2.6c0,1.5-0.5,2.7-1.5,3.5
				c-1,0.8-2.4,1.2-4.3,1.2h-3.9v6.1h-2V159.7z M77.4,167.1h3.9c1.3,0,2.2-0.2,2.8-0.7c0.6-0.5,0.8-1.2,0.8-2.1
				c0-0.6-0.2-1.2-0.5-1.6s-0.7-0.8-1.2-0.9c-0.5-0.1-1.1-0.2-2-0.2h-3.8V167.1z"/>
			<path style="fill:#43474F;" d="M102.6,159.4c2.1,0,3.9,0.7,5.3,2.2s2,3.4,2,5.7s-0.7,4.3-2,5.7s-3.1,2.2-5.3,2.2
				c-2.2,0-3.9-0.7-5.3-2.2c-1.4-1.5-2.1-3.4-2.1-5.7c0-2.4,0.7-4.3,2.1-5.7C98.7,160.2,100.5,159.4,102.6,159.4z M102.6,173.5
				c1.5,0,2.8-0.5,3.8-1.6c1-1.1,1.5-2.6,1.5-4.6s-0.5-3.5-1.5-4.6s-2.2-1.6-3.7-1.6c-1.5,0-2.8,0.5-3.8,1.6c-1,1.1-1.5,2.6-1.5,4.6
				c0,1.9,0.5,3.5,1.5,4.5C99.9,173,101.1,173.5,102.6,173.5z"/>
			<path style="fill:#43474F;" d="M131.4,173.2h2v5.4h-2V175h-11.7v3.6h-2v-5.4h1.4c0.5-0.9,1-2.1,1.3-3.7s0.5-3.9,0.5-7.2v-2.7
				h10.5V173.2z M129.4,173.2v-11.7H123v1c0,2.9-0.2,5.2-0.5,6.8c-0.3,1.6-0.8,2.9-1.4,3.9H129.4z"/>
			<path style="fill:#43474F;" d="M154,159.7l-5.8,11.2c-0.9,1.8-1.7,3-2.4,3.5c-0.7,0.6-1.3,0.8-2,0.8c-0.7,0-1.4-0.1-1.9-0.3v-1.9
				c0.4,0.2,1,0.3,1.7,0.3c0.9,0,1.8-0.9,2.7-2.6l-2.9-5.6l-2.9-5.6h2.3l2.2,4.6l2.2,4.6l4.5-9.1H154z"/>
			<path style="fill:#43474F;" d="M174.7,175H172l-5.4-7.6l-2.4,2.3v5.3h-2v-15.3h2v7.6l7.5-7.6h2.7L168,166L174.7,175z"/>
			<path style="fill:#43474F;" d="M196.7,179.3h-1.8V175h-12v-15.3h2v13.5h8v-13.5h2v13.5h1.8V179.3z"/>
			<path style="fill:#43474F;" d="M207.5,175h-2v-15.3h2V175z"/>
			<path style="fill:#43474F;" d="M217.9,158.3H216v-2.1h1.9V158.3z M219.9,175h-2v-15.3h2V175z M221.8,158.3h-1.9v-2.1h1.9V158.3z"
				/>
		</g>
	</g>
	<line style="fill:#43474F;stroke:#000000;stroke-miterlimit:10;" x1="221" y1="142" x2="164" y2="142"/>
	<line style="fill:#43474F;stroke:#000000;stroke-miterlimit:10;" x1="110" y1="142" x2="53" y2="142"/>
</g>
<g>
	<path style="fill:none;stroke:#43474F;stroke-width:2.126;stroke-miterlimit:10;" d="M22.9,2h228.2c0,11.5,9.4,20.9,20.9,20.9
		v189.2c-11.5,0-20.9,9.4-20.9,20.9H22.9c0-11.5-9.4-20.9-20.9-20.9V22.9C13.5,22.9,22.9,13.5,22.9,2L22.9,2z"/>
	<path style="fill:none;stroke:#43474F;stroke-width:0.7087;stroke-miterlimit:10;" d="M27.4,8.5h219.3c0,10.9,8.9,19.8,19.9,19.8
		v179.4c-10.9,0-19.9,8.9-19.9,19.8H27.4c0-10.9-8.9-19.8-19.9-19.8V28.3C18.5,28.3,27.4,19.4,27.4,8.5L27.4,8.5z"/>
</g>
</svg>
