<?xml version="1.0" encoding="utf-8"?>
<!-- Generator: Adobe Illustrator 21.1.0, SVG Export Plug-In . SVG Version: 6.00 Build 0)  -->
<svg version="1.1" id="Layer_1" xmlns="http://www.w3.org/2000/svg" xmlns:xlink="http://www.w3.org/1999/xlink" x="0px" y="0px"
	 viewBox="0 0 273.2 235" style="enable-background:new 0 0 273.2 235;" xml:space="preserve">
<g>
	<g>
		<g>
			<path style="fill:#43474F;" d="M55.8,60.4h4.8c0.4,0,0.8,0.1,1,0.4c0.3,0.3,0.4,0.6,0.4,1v6.5c0,0.4-0.1,0.7-0.4,1
				c-0.3,0.3-0.6,0.4-1,0.4H58v7.8h-2.2V60.4z M59.9,67.5v-5H58v5H59.9z"/>
			<path style="fill:#43474F;" d="M77.1,75.4v2.2h-5.7V60.4h5.5v2.2h-3.3v4.7h2.3v2.2h-2.3v5.8H77.1z"/>
			<path style="fill:#43474F;" d="M91.4,77.6l-0.3-3.4h-2.5l-0.3,3.4H86l1.8-17.2h3.9l1.8,17.2H91.4z M89.8,62.6l-1,9.4h2L89.8,62.6
				z"/>
			<path style="fill:#43474F;" d="M103.3,61.8c0-0.4,0.1-0.7,0.4-1c0.3-0.3,0.6-0.4,1-0.4h4.8v17.2h-2.2v-15h-1.9v13.6
				c0,0.4-0.1,0.7-0.4,1c-0.3,0.3-0.6,0.4-1,0.4h-1.7v-2.2h1V61.8z"/>
			<path style="fill:#43474F;" d="M118.8,77.6V60.4h2.2v17.2H118.8z"/>
			<path style="fill:#43474F;" d="M130.9,72.5h2.2v2.9h1.9v-5.6h-2.2v-2.2h2.2v-5h-1.9v3h-2.2v-3.7c0-0.4,0.1-0.8,0.4-1
				c0.3-0.3,0.6-0.4,1.1-0.4h3.3c0.4,0,0.8,0.1,1,0.4c0.3,0.3,0.4,0.6,0.4,1v5.5c0,0.7-0.3,1.1-1,1.2c0.3,0.1,0.6,0.2,0.8,0.5
				c0.2,0.3,0.3,0.6,0.3,0.9v6.1c0,0.4-0.1,0.7-0.4,1c-0.3,0.3-0.6,0.4-1,0.4h-3.3c-0.1,0-0.2,0-0.3,0c-0.3-0.1-0.6-0.2-0.8-0.5
				c-0.2-0.3-0.3-0.6-0.3-0.9V72.5z"/>
			<path style="fill:#43474F;" d="M146.9,76.1V61.8c0-0.4,0.1-0.7,0.4-1c0.3-0.3,0.6-0.4,1-0.4h3.3c0.4,0,0.8,0.1,1,0.4
				c0.3,0.3,0.4,0.6,0.4,1v14.3c0,0.4-0.1,0.7-0.4,1c-0.3,0.3-0.6,0.4-1,0.4h-3.3c-0.4,0-0.7-0.1-1-0.4
				C147.1,76.9,146.9,76.5,146.9,76.1z M151,75.4V62.6h-1.9v12.8H151z"/>
			<path style="fill:#43474F;" d="M163,77.6V60.4h4.6c0.4,0,0.8,0.1,1,0.4c0.3,0.3,0.4,0.6,0.4,1v5.5c0,0.7-0.3,1.1-0.8,1.2
				c0.3,0.1,0.6,0.2,0.8,0.5c0.2,0.3,0.3,0.6,0.3,0.9v6.1c0,0.4-0.1,0.7-0.4,1c-0.3,0.3-0.6,0.4-1,0.4H163z M165.2,62.6v5h1.6v-5
				H165.2z M165.2,75.4h1.9v-5.6h-1.9V75.4z"/>
			<path style="fill:#43474F;" d="M183.8,77.6l-0.3-3.4H181l-0.3,3.4h-2.2l1.8-17.2h3.9l1.8,17.2H183.8z M182.2,62.6l-1,9.4h2
				L182.2,62.6z"/>
			<path style="fill:#43474F;" d="M195.1,77.6V60.4h2.2v7.9h1.9v-7.9h2.2v17.2h-2.2v-7.1h-1.9v7.1H195.1z"/>
			<path style="fill:#43474F;" d="M211.2,76.1V61.8c0-0.4,0.1-0.7,0.4-1c0.3-0.3,0.6-0.4,1-0.4h3.3c0.4,0,0.8,0.1,1,0.4
				c0.3,0.3,0.4,0.6,0.4,1v14.3c0,0.4-0.1,0.7-0.4,1c-0.3,0.3-0.6,0.4-1,0.4h-3.3c-0.4,0-0.7-0.1-1-0.4
				C211.4,76.9,211.2,76.5,211.2,76.1z M215.3,75.4V62.6h-1.9v12.8H215.3z"/>
		</g>
	</g>
	<g>
		<g>
			<path style="fill:#43474F;" d="M129.6,133.1h2.2v6.6l1.7-6.6h2.4l-2.4,8.1l2.6,9.3h-2.3l-2.1-7.6v7.6h-2.2V133.1z"/>
			<path style="fill:#43474F;" d="M144.6,150.5h-2.2v-17.4h5.6v2.2h-3.4V150.5z"/>
		</g>
	</g>
	<g>
		<path style="fill:#B73041;" d="M104.3,121.9c0,1.6-0.7,3-2.1,4.2c-1.4,1.2-3,1.8-5,1.8c-1.9,0-3.6-0.6-4.9-1.8
			c-1.4-1.2-2.1-2.6-2.1-4.2v-6.6h4.7v9.2c0,0.6,0.2,1.2,0.7,1.7c0.5,0.5,1,0.7,1.7,0.7s1.2-0.2,1.7-0.7c0.5-0.5,0.7-1,0.7-1.7
			v-15.6c0-0.6-0.2-1.2-0.7-1.7c-0.5-0.5-1-0.7-1.7-0.7h-6.7V86.7h13.1v12.3H99V87.7h-3.8v17.7h2c1.9,0,3.6,0.6,5,1.8
			c1.4,1.2,2.1,2.6,2.1,4.2V121.9z M93.3,125.8c-0.5-0.7-0.8-1.7-0.8-2.8v-6.6h-1.2v6C91.4,123.8,92.1,124.9,93.3,125.8z
			 M92.9,105.4V87.7h-1.2v17.7H92.9z M101.9,122.8v-12.4c0-1.6-0.7-2.8-2.1-3.7c0.6,0.7,0.9,1.7,0.9,2.9v14c0,1.2-0.3,2.1-0.9,2.9
			C101.2,125.6,101.9,124.4,101.9,122.8z M101.4,97.9V87.7h-1.2v10.2H101.4z"/>
		<path style="fill:#B73041;" d="M121.8,121.9c0,1.6-0.7,3-2.1,4.2c-1.4,1.2-3,1.8-5,1.8c-1.9,0-3.6-0.6-4.9-1.8
			c-1.4-1.2-2.1-2.6-2.1-4.2V92.3c0-1.6,0.7-3,2.1-4.2c1.4-1.2,3-1.8,4.9-1.8c1.9,0,3.6,0.6,5,1.8c1.4,1.2,2.1,2.6,2.1,4.2V121.9z
			 M110.9,125.8c-0.5-0.7-0.8-1.7-0.8-2.8V91.2c0-1.1,0.3-2.1,0.8-2.8c-1.3,0.9-1.9,2-1.9,3.5v30.4
			C108.9,123.8,109.6,124.9,110.9,125.8z M117.1,124.5V89.8c0-0.6-0.2-1.2-0.7-1.7c-0.5-0.5-1-0.7-1.7-0.7s-1.2,0.2-1.7,0.7
			s-0.7,1-0.7,1.7v34.7c0,0.6,0.2,1.2,0.7,1.7c0.5,0.5,1,0.7,1.7,0.7s1.2-0.2,1.7-0.7C116.9,125.6,117.1,125.1,117.1,124.5z
			 M119.5,122.8V91.4c0-1.6-0.7-2.8-2.1-3.7c0.6,0.7,0.9,1.7,0.9,2.9v33.1c0,1.2-0.3,2.1-0.9,2.9
			C118.7,125.6,119.5,124.4,119.5,122.8z"/>
		<path style="fill:#B73041;" d="M148.1,121.9c0,1.6-0.7,3-2.1,4.2c-1.4,1.2-3,1.8-5,1.8c-1.9,0-3.6-0.6-4.9-1.8
			c-1.4-1.2-2.1-2.6-2.1-4.2V92.3c0-1.6,0.7-3,2.1-4.2c1.4-1.2,3-1.8,4.9-1.8c1.9,0,3.6,0.6,5,1.8c1.4,1.2,2.1,2.6,2.1,4.2V121.9z
			 M137.1,125.8c-0.5-0.7-0.8-1.7-0.8-2.8V91.2c0-1.1,0.3-2.1,0.8-2.8c-1.3,0.9-1.9,2-1.9,3.5v30.4
			C135.2,123.8,135.8,124.9,137.1,125.8z M143.4,124.5V89.8c0-0.6-0.2-1.2-0.7-1.7c-0.5-0.5-1-0.7-1.7-0.7s-1.2,0.2-1.7,0.7
			s-0.7,1-0.7,1.7v34.7c0,0.6,0.2,1.2,0.7,1.7c0.5,0.5,1,0.7,1.7,0.7s1.2-0.2,1.7-0.7C143.2,125.6,143.4,125.1,143.4,124.5z
			 M145.7,122.8V91.4c0-1.6-0.7-2.8-2.1-3.7c0.6,0.7,0.9,1.7,0.9,2.9v33.1c0,1.2-0.3,2.1-0.9,2.9C145,125.6,145.7,124.4,145.7,122.8
			z"/>
		<path style="fill:#B73041;" d="M165.6,121.9c0,1.6-0.7,3-2.1,4.2c-1.4,1.2-3,1.8-5,1.8c-1.9,0-3.6-0.6-4.9-1.8
			c-1.4-1.2-2.1-2.6-2.1-4.2V92.3c0-1.6,0.7-3,2.1-4.2c1.4-1.2,3-1.8,4.9-1.8c1.9,0,3.6,0.6,5,1.8c1.4,1.2,2.1,2.6,2.1,4.2V121.9z
			 M154.7,125.8c-0.5-0.7-0.8-1.7-0.8-2.8V91.2c0-1.1,0.3-2.1,0.8-2.8c-1.3,0.9-1.9,2-1.9,3.5v30.4
			C152.7,123.8,153.4,124.9,154.7,125.8z M160.9,124.5V89.8c0-0.6-0.2-1.2-0.7-1.7c-0.5-0.5-1-0.7-1.7-0.7s-1.2,0.2-1.7,0.7
			s-0.7,1-0.7,1.7v34.7c0,0.6,0.2,1.2,0.7,1.7c0.5,0.5,1,0.7,1.7,0.7s1.2-0.2,1.7-0.7C160.7,125.6,160.9,125.1,160.9,124.5z
			 M163.2,122.8V91.4c0-1.6-0.7-2.8-2.1-3.7c0.6,0.7,0.9,1.7,0.9,2.9v33.1c0,1.2-0.3,2.1-0.9,2.9
			C162.5,125.6,163.2,124.4,163.2,122.8z"/>
		<path style="fill:#B73041;" d="M183.1,121.9c0,1.6-0.7,3-2.1,4.2c-1.4,1.2-3,1.8-5,1.8c-1.9,0-3.6-0.6-4.9-1.8
			c-1.4-1.2-2.1-2.6-2.1-4.2V92.3c0-1.6,0.7-3,2.1-4.2c1.4-1.2,3-1.8,4.9-1.8c1.9,0,3.6,0.6,5,1.8c1.4,1.2,2.1,2.6,2.1,4.2V121.9z
			 M172.2,125.8c-0.5-0.7-0.8-1.7-0.8-2.8V91.2c0-1.1,0.3-2.1,0.8-2.8c-1.3,0.9-1.9,2-1.9,3.5v30.4
			C170.2,123.8,170.9,124.9,172.2,125.8z M178.4,124.5V89.8c0-0.6-0.2-1.2-0.7-1.7c-0.5-0.5-1-0.7-1.7-0.7s-1.2,0.2-1.7,0.7
			s-0.7,1-0.7,1.7v34.7c0,0.6,0.2,1.2,0.7,1.7c0.5,0.5,1,0.7,1.7,0.7s1.2-0.2,1.7-0.7C178.2,125.6,178.4,125.1,178.4,124.5z
			 M180.8,122.8V91.4c0-1.6-0.7-2.8-2.1-3.7c0.6,0.7,0.9,1.7,0.9,2.9v33.1c0,1.2-0.3,2.1-0.9,2.9
			C180.1,125.6,180.8,124.4,180.8,122.8z"/>
	</g>
	<g>
		<path style="fill:#43474F;" d="M61.8,127.6h-0.9c-1.9,0-3.5-0.6-4.7-1.7c-1.3-1.2-1.9-2.6-1.9-4.2v-12.8c0-0.6-0.2-1.2-0.7-1.7
			c-0.5-0.5-1-0.7-1.7-0.7h-0.6v-1.1H52c0.6,0,1.2-0.2,1.7-0.7c0.5-0.5,0.7-1,0.7-1.7V92.6c0-1.7,0.6-3.1,1.9-4.2
			c1.3-1.2,2.8-1.7,4.7-1.7h0.9v1.1h-0.9c-1.4,0-2.1,0.8-2.1,2.3v10.5c0,2.5-1.4,4.4-4.1,5.4c2.7,1.1,4.1,3,4.1,5.4v12.8
			c0,1.6,0.7,2.3,2.1,2.3h0.9V127.6z M57.4,88.6c-1.3,0.9-1.9,2.1-1.9,3.6v10c0,1.2-0.3,2.2-0.9,2.9c1.4-0.9,2.1-2.1,2.1-3.7v-10
			C56.6,90.3,56.9,89.3,57.4,88.6z M57.4,125.6c-0.5-0.7-0.8-1.7-0.8-2.9v-12.3c0-1.6-0.7-2.8-2.1-3.7c0.6,0.7,0.9,1.7,0.9,2.9V122
			C55.4,123.5,56.1,124.7,57.4,125.6z"/>
	</g>
	<g>
		<path style="fill:#43474F;" d="M221.6,106.5H221c-0.6,0-1.2,0.2-1.7,0.7c-0.5,0.5-0.7,1-0.7,1.7v12.8c0,1.7-0.6,3.1-1.9,4.2
			c-1.2,1.2-2.8,1.7-4.7,1.7h-0.9v-1.1h0.9c1.4,0,2-0.8,2-2.3v-12.8c0-2.5,1.4-4.3,4.1-5.4c-2.7-1.1-4.1-2.9-4.1-5.4V90
			c0-1.6-0.7-2.3-2-2.3h-0.9v-1.1h0.9c1.9,0,3.5,0.6,4.7,1.7c1.2,1.2,1.9,2.6,1.9,4.2v10.5c0,0.6,0.2,1.2,0.7,1.7
			c0.5,0.5,1,0.7,1.7,0.7h0.6V106.5z M217.3,104.5c-0.6-0.7-0.9-1.8-0.9-3.2v-9.7c0-1.6-0.7-2.9-2.1-3.8c0.6,0.7,0.9,1.7,0.9,2.9
			v9.7C215.2,102.3,215.9,103.6,217.3,104.5z M217.3,107.3c-1.4,0.9-2.1,2.2-2.1,4v12c0,1.3-0.3,2.2-0.9,2.9
			c1.4-0.9,2.1-2.1,2.1-3.7v-12C216.4,109.1,216.7,108.1,217.3,107.3z"/>
	</g>
	<g>
		<g>
			<path style="fill:#43474F;" d="M59.8,175.3c-2.2,0-3.9-0.7-5.2-2.1c-1.3-1.4-1.9-3.4-1.9-5.8s0.6-4.4,1.9-5.8
				c1.3-1.4,3-2.1,5.2-2.1c1.7,0,3.1,0.4,4.3,1.3s1.8,2.1,2,3.6h-2.1c-0.1-1-0.5-1.7-1.3-2.3c-0.8-0.6-1.7-0.9-2.9-0.9
				c-1.6,0-2.8,0.5-3.7,1.6c-0.9,1.1-1.4,2.6-1.4,4.6c0,2,0.4,3.5,1.3,4.6s2.1,1.6,3.7,1.6c1.2,0,2.2-0.3,2.9-0.9s1.2-1.4,1.3-2.5
				H66c-0.1,1.6-0.8,2.9-1.9,3.8C62.9,174.8,61.5,175.3,59.8,175.3z"/>
			<path style="fill:#43474F;" d="M90.8,170.6c0,1.4-0.5,2.5-1.5,3.3c-1,0.8-2.4,1.1-4.3,1.1h-5.7v-15.3h5.5c1.6,0,2.9,0.3,3.8,1
				s1.4,1.7,1.4,2.9c0,1.5-0.7,2.6-2.2,3.3c1,0.3,1.7,0.7,2.2,1.4C90.6,168.9,90.8,169.7,90.8,170.6z M81.4,166.1h3.4
				c1.1,0,1.9-0.2,2.5-0.5c0.5-0.4,0.8-1,0.8-1.8c0-0.8-0.3-1.3-0.8-1.7c-0.5-0.4-1.4-0.6-2.7-0.6h-3.2V166.1z M81.4,173.2h3.7
				c2.4,0,3.6-0.9,3.6-2.6c0-0.9-0.3-1.6-0.8-2c-0.6-0.4-1.6-0.6-3.1-0.6h-3.4V173.2z"/>
			<path style="fill:#43474F;" d="M116.2,175h-1.9v-12.3l-8,12.3h-2.1v-15.3h1.9V172l8-12.3h2.1V175z"/>
			<path style="fill:#43474F;" d="M142.2,175h-2v-7.2h-8v7.2h-2v-15.3h2v6.3h8v-6.3h2V175z"/>
			<path style="fill:#43474F;" d="M168.2,175h-1.9v-12.3l-8,12.3h-2.1v-15.3h1.9V172l8-12.3h2.1V175z"/>
			<path style="fill:#43474F;" d="M194.2,175h-2v-7.2h-8v7.2h-2v-15.3h2v6.3h8v-6.3h2V175z"/>
			<path style="fill:#43474F;" d="M220.3,175h-1.9v-12.3l-8,12.3h-2.1v-15.3h1.9V172l8-12.3h2.1V175z"/>
		</g>
	</g>
	<line style="fill:#43474F;stroke:#000000;stroke-miterlimit:10;" x1="221" y1="142" x2="164" y2="142"/>
	<line style="fill:#43474F;stroke:#000000;stroke-miterlimit:10;" x1="110" y1="142" x2="53" y2="142"/>
</g>
<g>
	<path style="fill:none;stroke:#43474F;stroke-width:2.126;stroke-miterlimit:10;" d="M22.9,2h228.2c0,11.5,9.4,20.9,20.9,20.9
		v189.2c-11.5,0-20.9,9.4-20.9,20.9H22.9c0-11.5-9.4-20.9-20.9-20.9V22.9C13.5,22.9,22.9,13.5,22.9,2L22.9,2z"/>
	<path style="fill:none;stroke:#43474F;stroke-width:0.7087;stroke-miterlimit:10;" d="M27.4,8.5h219.3c0,10.9,8.9,19.8,19.9,19.8
		v179.4c-10.9,0-19.9,8.9-19.9,19.8H27.4c0-10.9-8.9-19.8-19.9-19.8V28.3C18.5,28.3,27.4,19.4,27.4,8.5L27.4,8.5z"/>
</g>
</svg>
