<?xml version="1.0" encoding="utf-8"?>
<!-- Generator: Adobe Illustrator 21.1.0, SVG Export Plug-In . SVG Version: 6.00 Build 0)  -->
<svg version="1.1" id="Layer_1" xmlns="http://www.w3.org/2000/svg" xmlns:xlink="http://www.w3.org/1999/xlink" x="0px" y="0px"
	 viewBox="0 0 273.2 235" style="enable-background:new 0 0 273.2 235;" xml:space="preserve">
<g>
	<g>
		<g>
			<path style="fill:#43474F;" d="M58.9,77.6V60.4h4.6c0.4,0,0.8,0.1,1,0.4c0.3,0.3,0.4,0.6,0.4,1v5.5c0,0.7-0.3,1.1-0.8,1.2
				c0.3,0.1,0.6,0.2,0.8,0.5c0.2,0.3,0.3,0.6,0.3,0.9v6.1c0,0.4-0.1,0.7-0.4,1c-0.3,0.3-0.6,0.4-1,0.4H58.9z M61.1,62.6v5h1.6v-5
				H61.1z M61.1,75.4H63v-5.6h-1.9V75.4z"/>
			<path style="fill:#43474F;" d="M80.1,77.6H78V60.4h2.2v9.1l2.6-9.1H85v17.2h-2.2v-9.3L80.1,77.6z"/>
			<path style="fill:#43474F;" d="M98,60.4h4.8c0.4,0,0.8,0.1,1,0.4c0.3,0.3,0.4,0.6,0.4,1v6.5c0,0.4-0.1,0.7-0.4,1
				c-0.3,0.3-0.6,0.4-1,0.4h-2.6v7.8H98V60.4z M102.1,67.5v-5h-1.9v5H102.1z"/>
			<path style="fill:#43474F;" d="M116.8,76.1V61.8c0-0.4,0.1-0.7,0.4-1c0.3-0.3,0.6-0.4,1-0.4h3.3c0.4,0,0.8,0.1,1,0.4
				c0.3,0.3,0.4,0.6,0.4,1v14.3c0,0.4-0.1,0.7-0.4,1c-0.3,0.3-0.6,0.4-1,0.4h-3.3c-0.4,0-0.7-0.1-1-0.4
				C116.9,76.9,116.8,76.5,116.8,76.1z M120.9,75.4V62.6H119v12.8H120.9z"/>
			<path style="fill:#43474F;" d="M138.3,67.6h2.6c0.4,0,0.8,0.1,1,0.4s0.4,0.6,0.4,1v7.1c0,0.4-0.1,0.7-0.4,1
				c-0.3,0.3-0.6,0.4-1,0.4H136V60.4h5.5v2.2h-3.3V67.6z M138.3,69.8v5.6h1.9v-5.6H138.3z"/>
			<path style="fill:#43474F;" d="M155.7,61.8c0-0.4,0.1-0.7,0.4-1c0.3-0.3,0.6-0.4,1-0.4h4.8v17.2h-2.2v-15h-1.9v13.6
				c0,0.4-0.1,0.7-0.4,1c-0.3,0.3-0.6,0.4-1,0.4h-1.7v-2.2h1V61.8z"/>
			<path style="fill:#43474F;" d="M180.2,75.4v2.2h-5.7V60.4h5.5v2.2h-3.3v4.7h2.3v2.2h-2.3v5.8H180.2z"/>
			<path style="fill:#43474F;" d="M192.9,77.6V60.4h2.2v7.9h1.9v-7.9h2.2v17.2H197v-7.1h-1.9v7.1H192.9z"/>
			<path style="fill:#43474F;" d="M212.1,76.1V61.8c0-0.4,0.1-0.7,0.4-1c0.3-0.3,0.6-0.4,1-0.4h3.3c0.4,0,0.8,0.1,1,0.4
				c0.3,0.3,0.4,0.6,0.4,1v14.3c0,0.4-0.1,0.7-0.4,1c-0.3,0.3-0.6,0.4-1,0.4h-3.3c-0.4,0-0.7-0.1-1-0.4
				C212.3,76.9,212.1,76.5,212.1,76.1z M216.2,75.4V62.6h-1.9v12.8H216.2z"/>
		</g>
	</g>
	<g>
		<g>
			<path style="fill:#43474F;" d="M131.6,133.1h2.2v6.6l1.7-6.6h2.4l-2.4,8.1l2.6,9.3h-2.3l-2.1-7.6v7.6h-2.2V133.1z"/>
			<path style="fill:#43474F;" d="M146.6,150.5h-2.2v-17.4h5.6v2.2h-3.4V150.5z"/>
		</g>
	</g>
	<g>
		<path style="fill:#B73041;" d="M84.3,127.6h-7.6v-1.1h1.5v-8.4h-7.9v-1.2l7.9-30.3h4.7v30.3h1.5v1.2h-1.5v8.4h1.5V127.6z
			 M78.1,116.9V91.6l-6.6,25.4H78.1z M80.5,126.5V87.7h-1.2v38.8H80.5z"/>
		<path style="fill:#B73041;" d="M109.5,121.9c0,1.6-0.7,3-2.1,4.2c-1.4,1.2-3,1.8-5,1.8c-1.9,0-3.6-0.6-4.9-1.8
			c-1.4-1.2-2.1-2.6-2.1-4.2v-10.5c0-2.5,1.4-4.3,4.1-5.4c-2.7-1.1-4.1-2.9-4.1-5.4v-8.2c0-1.6,0.7-3,2.1-4.2c1.4-1.2,3-1.8,4.9-1.8
			c1.9,0,3.6,0.6,5,1.8c1.4,1.2,2.1,2.6,2.1,4.2v8.2c0,2.5-1.4,4.4-4.1,5.4c2.7,1.1,4.1,3,4.1,5.4V121.9z M98.7,104.4
			c-0.6-0.7-0.9-1.7-0.9-3.1V91.2c0-1.1,0.3-2.1,0.8-2.8c-1.3,0.9-1.9,2-1.9,3.5v8.6C96.6,102.2,97.3,103.5,98.7,104.4z M98.7,107.4
			c-1.4,0.9-2.1,2.2-2.1,3.9v11c0,1.4,0.6,2.6,1.9,3.5c-0.5-0.7-0.8-1.7-0.8-2.8v-12.5C97.8,109.2,98.1,108.2,98.7,107.4z
			 M104.8,103.1V89.8c0-0.6-0.2-1.2-0.7-1.7c-0.5-0.5-1-0.7-1.7-0.7s-1.2,0.2-1.7,0.7s-0.7,1-0.7,1.7v13.3c0,0.6,0.2,1.2,0.7,1.7
			c0.5,0.5,1,0.7,1.7,0.7s1.2-0.2,1.7-0.7C104.6,104.3,104.8,103.7,104.8,103.1z M104.8,124.5v-15.6c0-0.6-0.2-1.2-0.7-1.7
			c-0.5-0.5-1-0.7-1.7-0.7s-1.2,0.2-1.7,0.7s-0.7,1-0.7,1.7v15.6c0,0.6,0.2,1.2,0.7,1.7c0.5,0.5,1,0.7,1.7,0.7s1.2-0.2,1.7-0.7
			C104.6,125.6,104.8,125.1,104.8,124.5z M107.1,101.5V91.4c0-1.6-0.7-2.8-2.1-3.7c0.6,0.7,0.9,1.7,0.9,2.9v11.7
			c0,1.2-0.3,2.2-0.9,2.9C106.4,104.2,107.1,103,107.1,101.5z M107.1,122.8v-12.4c0-1.6-0.7-2.8-2.1-3.7c0.6,0.7,0.9,1.7,0.9,2.9v14
			c0,1.2-0.3,2.1-0.9,2.9C106.4,125.6,107.1,124.4,107.1,122.8z"/>
		<path style="fill:#B73041;" d="M127,121.9c0,1.6-0.7,3-2.1,4.2c-1.4,1.2-3,1.8-5,1.8c-1.9,0-3.6-0.6-4.9-1.8
			c-1.4-1.2-2.1-2.6-2.1-4.2V92.3c0-1.6,0.7-3,2.1-4.2c1.4-1.2,3-1.8,4.9-1.8c1.9,0,3.6,0.6,5,1.8c1.4,1.2,2.1,2.6,2.1,4.2V121.9z
			 M116.1,125.8c-0.5-0.7-0.8-1.7-0.8-2.8V91.2c0-1.1,0.3-2.1,0.8-2.8c-1.3,0.9-1.9,2-1.9,3.5v30.4
			C114.1,123.8,114.8,124.9,116.1,125.8z M122.3,124.5V89.8c0-0.6-0.2-1.2-0.7-1.7c-0.5-0.5-1-0.7-1.7-0.7s-1.2,0.2-1.7,0.7
			s-0.7,1-0.7,1.7v34.7c0,0.6,0.2,1.2,0.7,1.7c0.5,0.5,1,0.7,1.7,0.7s1.2-0.2,1.7-0.7C122.1,125.6,122.3,125.1,122.3,124.5z
			 M124.7,122.8V91.4c0-1.6-0.7-2.8-2.1-3.7c0.6,0.7,0.9,1.7,0.9,2.9v33.1c0,1.2-0.3,2.1-0.9,2.9C124,125.6,124.7,124.4,124.7,122.8
			z"/>
		<path style="fill:#B73041;" d="M144.5,121.9c0,1.6-0.7,3-2.1,4.2c-1.4,1.2-3,1.8-5,1.8c-1.9,0-3.6-0.6-4.9-1.8
			c-1.4-1.2-2.1-2.6-2.1-4.2V92.3c0-1.6,0.7-3,2.1-4.2c1.4-1.2,3-1.8,4.9-1.8c1.9,0,3.6,0.6,5,1.8c1.4,1.2,2.1,2.6,2.1,4.2V121.9z
			 M133.6,125.8c-0.5-0.7-0.8-1.7-0.8-2.8V91.2c0-1.1,0.3-2.1,0.8-2.8c-1.3,0.9-1.9,2-1.9,3.5v30.4
			C131.7,123.8,132.3,124.9,133.6,125.8z M139.8,124.5V89.8c0-0.6-0.2-1.2-0.7-1.7c-0.5-0.5-1-0.7-1.7-0.7s-1.2,0.2-1.7,0.7
			s-0.7,1-0.7,1.7v34.7c0,0.6,0.2,1.2,0.7,1.7c0.5,0.5,1,0.7,1.7,0.7s1.2-0.2,1.7-0.7C139.6,125.6,139.8,125.1,139.8,124.5z
			 M142.2,122.8V91.4c0-1.6-0.7-2.8-2.1-3.7c0.6,0.7,0.9,1.7,0.9,2.9v33.1c0,1.2-0.3,2.1-0.9,2.9
			C141.5,125.6,142.2,124.4,142.2,122.8z"/>
		<path style="fill:#B73041;" d="M170.8,121.9c0,1.6-0.7,3-2.1,4.2c-1.4,1.2-3,1.8-5,1.8c-1.9,0-3.6-0.6-4.9-1.8
			c-1.4-1.2-2.1-2.6-2.1-4.2V92.3c0-1.6,0.7-3,2.1-4.2c1.4-1.2,3-1.8,4.9-1.8c1.9,0,3.6,0.6,5,1.8c1.4,1.2,2.1,2.6,2.1,4.2V121.9z
			 M159.9,125.8c-0.5-0.7-0.8-1.7-0.8-2.8V91.2c0-1.1,0.3-2.1,0.8-2.8c-1.3,0.9-1.9,2-1.9,3.5v30.4
			C157.9,123.8,158.6,124.9,159.9,125.8z M166.1,124.5V89.8c0-0.6-0.2-1.2-0.7-1.7c-0.5-0.5-1-0.7-1.7-0.7s-1.2,0.2-1.7,0.7
			s-0.7,1-0.7,1.7v34.7c0,0.6,0.2,1.2,0.7,1.7c0.5,0.5,1,0.7,1.7,0.7s1.2-0.2,1.7-0.7C165.9,125.6,166.1,125.1,166.1,124.5z
			 M168.5,122.8V91.4c0-1.6-0.7-2.8-2.1-3.7c0.6,0.7,0.9,1.7,0.9,2.9v33.1c0,1.2-0.3,2.1-0.9,2.9
			C167.7,125.6,168.5,124.4,168.5,122.8z"/>
		<path style="fill:#B73041;" d="M188.3,121.9c0,1.6-0.7,3-2.1,4.2c-1.4,1.2-3,1.8-5,1.8c-1.9,0-3.6-0.6-4.9-1.8
			c-1.4-1.2-2.1-2.6-2.1-4.2V92.3c0-1.6,0.7-3,2.1-4.2c1.4-1.2,3-1.8,4.9-1.8c1.9,0,3.6,0.6,5,1.8c1.4,1.2,2.1,2.6,2.1,4.2V121.9z
			 M177.4,125.8c-0.5-0.7-0.8-1.7-0.8-2.8V91.2c0-1.1,0.3-2.1,0.8-2.8c-1.3,0.9-1.9,2-1.9,3.5v30.4
			C175.4,123.8,176.1,124.9,177.4,125.8z M183.6,124.5V89.8c0-0.6-0.2-1.2-0.7-1.7c-0.5-0.5-1-0.7-1.7-0.7s-1.2,0.2-1.7,0.7
			s-0.7,1-0.7,1.7v34.7c0,0.6,0.2,1.2,0.7,1.7c0.5,0.5,1,0.7,1.7,0.7s1.2-0.2,1.7-0.7C183.4,125.6,183.6,125.1,183.6,124.5z
			 M186,122.8V91.4c0-1.6-0.7-2.8-2.1-3.7c0.6,0.7,0.9,1.7,0.9,2.9v33.1c0,1.2-0.3,2.1-0.9,2.9C185.3,125.6,186,124.4,186,122.8z"/>
		<path style="fill:#B73041;" d="M205.8,121.9c0,1.6-0.7,3-2.1,4.2c-1.4,1.2-3,1.8-5,1.8c-1.9,0-3.6-0.6-4.9-1.8
			c-1.4-1.2-2.1-2.6-2.1-4.2V92.3c0-1.6,0.7-3,2.1-4.2c1.4-1.2,3-1.8,4.9-1.8c1.9,0,3.6,0.6,5,1.8c1.4,1.2,2.1,2.6,2.1,4.2V121.9z
			 M194.9,125.8c-0.5-0.7-0.8-1.7-0.8-2.8V91.2c0-1.1,0.3-2.1,0.8-2.8c-1.3,0.9-1.9,2-1.9,3.5v30.4
			C193,123.8,193.6,124.9,194.9,125.8z M201.1,124.5V89.8c0-0.6-0.2-1.2-0.7-1.7c-0.5-0.5-1-0.7-1.7-0.7s-1.2,0.2-1.7,0.7
			s-0.7,1-0.7,1.7v34.7c0,0.6,0.2,1.2,0.7,1.7c0.5,0.5,1,0.7,1.7,0.7s1.2-0.2,1.7-0.7C200.9,125.6,201.1,125.1,201.1,124.5z
			 M203.5,122.8V91.4c0-1.6-0.7-2.8-2.1-3.7c0.6,0.7,0.9,1.7,0.9,2.9v33.1c0,1.2-0.3,2.1-0.9,2.9
			C202.8,125.6,203.5,124.4,203.5,122.8z"/>
	</g>
	<g>
		<path style="fill:#43474F;" d="M63.8,127.6h-0.9c-1.9,0-3.5-0.6-4.7-1.7c-1.3-1.2-1.9-2.6-1.9-4.2v-12.8c0-0.6-0.2-1.2-0.7-1.7
			c-0.5-0.5-1-0.7-1.7-0.7h-0.6v-1.1H54c0.6,0,1.2-0.2,1.7-0.7c0.5-0.5,0.7-1,0.7-1.7V92.6c0-1.7,0.6-3.1,1.9-4.2
			c1.3-1.2,2.8-1.7,4.7-1.7h0.9v1.1h-0.9c-1.4,0-2.1,0.8-2.1,2.3v10.5c0,2.5-1.4,4.4-4.1,5.4c2.7,1.1,4.1,3,4.1,5.4v12.8
			c0,1.6,0.7,2.3,2.1,2.3h0.9V127.6z M59.4,88.6c-1.3,0.9-1.9,2.1-1.9,3.6v10c0,1.2-0.3,2.2-0.9,2.9c1.4-0.9,2.1-2.1,2.1-3.7v-10
			C58.6,90.3,58.9,89.3,59.4,88.6z M59.4,125.6c-0.5-0.7-0.8-1.7-0.8-2.9v-12.3c0-1.6-0.7-2.8-2.1-3.7c0.6,0.7,0.9,1.7,0.9,2.9V122
			C57.4,123.5,58.1,124.7,59.4,125.6z"/>
	</g>
	<g>
		<path style="fill:#43474F;" d="M223.6,106.5H223c-0.6,0-1.2,0.2-1.7,0.7c-0.5,0.5-0.7,1-0.7,1.7v12.8c0,1.7-0.6,3.1-1.9,4.2
			c-1.2,1.2-2.8,1.7-4.7,1.7h-0.9v-1.1h0.9c1.4,0,2-0.8,2-2.3v-12.8c0-2.5,1.4-4.3,4.1-5.4c-2.7-1.1-4.1-2.9-4.1-5.4V90
			c0-1.6-0.7-2.3-2-2.3h-0.9v-1.1h0.9c1.9,0,3.5,0.6,4.7,1.7c1.2,1.2,1.9,2.6,1.9,4.2v10.5c0,0.6,0.2,1.2,0.7,1.7
			c0.5,0.5,1,0.7,1.7,0.7h0.6V106.5z M219.3,104.5c-0.6-0.7-0.9-1.8-0.9-3.2v-9.7c0-1.6-0.7-2.9-2.1-3.8c0.6,0.7,0.9,1.7,0.9,2.9
			v9.7C217.2,102.3,217.9,103.6,219.3,104.5z M219.3,107.3c-1.4,0.9-2.1,2.2-2.1,4v12c0,1.3-0.3,2.2-0.9,2.9
			c1.4-0.9,2.1-2.1,2.1-3.7v-12C218.4,109.1,218.7,108.1,219.3,107.3z"/>
	</g>
	<g>
		<g>
			<path style="fill:#43474F;" d="M61.8,175.3c-2.2,0-3.9-0.7-5.2-2.1c-1.3-1.4-1.9-3.4-1.9-5.8s0.6-4.4,1.9-5.8
				c1.3-1.4,3-2.1,5.2-2.1c1.7,0,3.1,0.4,4.3,1.3s1.8,2.1,2,3.6h-2.1c-0.1-1-0.5-1.7-1.3-2.3c-0.8-0.6-1.7-0.9-2.9-0.9
				c-1.6,0-2.8,0.5-3.7,1.6c-0.9,1.1-1.4,2.6-1.4,4.6c0,2,0.4,3.5,1.3,4.6s2.1,1.6,3.7,1.6c1.2,0,2.2-0.3,2.9-0.9s1.2-1.4,1.3-2.5
				H68c-0.1,1.6-0.8,2.9-1.9,3.8C64.9,174.8,63.5,175.3,61.8,175.3z"/>
			<path style="fill:#43474F;" d="M92.8,170.6c0,1.4-0.5,2.5-1.5,3.3c-1,0.8-2.4,1.1-4.3,1.1h-5.7v-15.3h5.5c1.6,0,2.9,0.3,3.8,1
				s1.4,1.7,1.4,2.9c0,1.5-0.7,2.6-2.2,3.3c1,0.3,1.7,0.7,2.2,1.4C92.6,168.9,92.8,169.7,92.8,170.6z M83.4,166.1h3.4
				c1.1,0,1.9-0.2,2.5-0.5c0.5-0.4,0.8-1,0.8-1.8c0-0.8-0.3-1.3-0.8-1.7c-0.5-0.4-1.4-0.6-2.7-0.6h-3.2V166.1z M83.4,173.2h3.7
				c2.4,0,3.6-0.9,3.6-2.6c0-0.9-0.3-1.6-0.8-2c-0.6-0.4-1.6-0.6-3.1-0.6h-3.4V173.2z"/>
			<path style="fill:#43474F;" d="M118.2,175h-1.9v-12.3l-8,12.3h-2.1v-15.3h1.9V172l8-12.3h2.1V175z"/>
			<path style="fill:#43474F;" d="M144.2,175h-2v-7.2h-8v7.2h-2v-15.3h2v6.3h8v-6.3h2V175z"/>
			<path style="fill:#43474F;" d="M170.2,175h-1.9v-12.3l-8,12.3h-2.1v-15.3h1.9V172l8-12.3h2.1V175z"/>
			<path style="fill:#43474F;" d="M196.2,175h-2v-7.2h-8v7.2h-2v-15.3h2v6.3h8v-6.3h2V175z"/>
			<path style="fill:#43474F;" d="M222.3,175h-1.9v-12.3l-8,12.3h-2.1v-15.3h1.9V172l8-12.3h2.1V175z"/>
		</g>
	</g>
	<line style="fill:#43474F;stroke:#000000;stroke-miterlimit:10;" x1="223" y1="142" x2="166" y2="142"/>
	<line style="fill:#43474F;stroke:#000000;stroke-miterlimit:10;" x1="112" y1="142" x2="55" y2="142"/>
</g>
<g>
	<path style="fill:none;stroke:#43474F;stroke-width:2.126;stroke-miterlimit:10;" d="M22.9,2h228.2c0,11.5,9.4,20.9,20.9,20.9
		v189.2c-11.5,0-20.9,9.4-20.9,20.9H22.9c0-11.5-9.4-20.9-20.9-20.9V22.9C13.5,22.9,22.9,13.5,22.9,2L22.9,2z"/>
	<path style="fill:none;stroke:#43474F;stroke-width:0.7087;stroke-miterlimit:10;" d="M27.4,8.5h219.3c0,10.9,8.9,19.8,19.9,19.8
		v179.4c-10.9,0-19.9,8.9-19.9,19.8H27.4c0-10.9-8.9-19.8-19.9-19.8V28.3C18.5,28.3,27.4,19.4,27.4,8.5L27.4,8.5z"/>
</g>
</svg>
