<?xml version="1.0" encoding="utf-8"?>
<!-- Generator: Adobe Illustrator 21.1.0, SVG Export Plug-In . SVG Version: 6.00 Build 0)  -->
<svg version="1.1" id="Layer_1" xmlns="http://www.w3.org/2000/svg" xmlns:xlink="http://www.w3.org/1999/xlink" x="0px" y="0px"
	 viewBox="0 0 20 165" style="enable-background:new 0 0 20 165;" xml:space="preserve">
<g>
	<path style="fill:#F7F5EF;" d="M19,163h-1.5c-3.3,0-6-1-8.2-3c-2.2-2-3.3-4.5-3.3-7.3V85.3c0-1.1-0.4-2.1-1.2-2.9
		c-0.8-0.8-1.7-1.2-2.9-1.2H1v-1.8h1c1.1,0,2.1-0.4,2.9-1.2C5.6,77.5,6,76.5,6,75.4v-64c0-2.9,1.1-5.3,3.3-7.3c2.2-2,4.9-3,8.2-3H19
		v1.8h-1.5c-2.4,0-3.6,1.4-3.6,4.1v64c0,4.4-2.4,7.5-7.1,9.4c4.7,2,7.1,5.1,7.1,9.4v67.3c0,2.7,1.2,4.1,3.6,4.1H19V163z M11.3,4.4
		C9.1,5.9,8,8,8,10.7V74c0,2.1-0.5,3.7-1.6,5c2.4-1.5,3.7-3.7,3.7-6.4V9.4C10,7.4,10.4,5.7,11.3,4.4z M11.3,159.6
		c-0.9-1.3-1.3-2.9-1.3-5V88.2c0-2.7-1.2-4.8-3.7-6.4C7.4,83,8,84.7,8,86.7v66.6C8,156,9.1,158.1,11.3,159.6z"/>
</g>
</svg>
