<?xml version="1.0" encoding="utf-8"?>
<!-- Generator: Adobe Illustrator 21.1.0, SVG Export Plug-In . SVG Version: 6.00 Build 0)  -->
<svg version="1.1" id="Layer_28" xmlns="http://www.w3.org/2000/svg" xmlns:xlink="http://www.w3.org/1999/xlink" x="0px" y="0px"
	 viewBox="0 0 52 52" style="enable-background:new 0 0 52 52;" xml:space="preserve">
<style type="text/css">
	.st08{fill:#BDBDBD;}
	.st18{fill:#B73041;}
</style>
<g>
	<path class="st08" d="M44,8v36H8V8H44 M46,6H6v40h40V6L46,6z"/>
</g>
<g>
	<path class="st08" d="M51,1h-1v1l0,0v1h1V1L51,1z M49,1h-1v1h1V1L49,1z M47,1h-1v1h1V1L47,1z M45,1h-1v1h1V1L45,1z M43,1h-1v1h1V1
		L43,1z M41,1h-1v1h1V1L41,1z M39,1h-1v1h1V1L39,1z M37,1h-1v1h1V1L37,1z M35,1h-1v1h1V1L35,1z M33,1h-1v1h1V1L33,1z M31,1h-1v1h1V1
		L31,1z M29,1h-1v1h1V1L29,1z M27,1h-1v1h1V1L27,1z M25,1h-1v1h1V1L25,1z M23,1h-1v1h1V1L23,1z M21,1h-1v1h1V1L21,1z M19,1h-1v1h1V1
		L19,1z M17,1h-1v1h1V1L17,1z M15,1h-1v1h1V1L15,1z M13,1h-1v1h1V1L13,1z M11,1h-1v1h1V1L11,1z M9,1H8v1h1V1L9,1z M7,1H6v1h1V1L7,1z
		 M5,1H4v1h1V1L5,1z M3,1H1v1h1l0,0h1V1L3,1z M2,3H1v1h1V3L2,3z M2,5H1v1h1V5L2,5z M2,7H1v1h1V7L2,7z M2,9H1v1h1V9L2,9z M2,11H1v1h1
		V11L2,11z M2,13H1v1h1V13L2,13z M2,15H1v1h1V15L2,15z M2,17H1v1h1V17L2,17z M2,19H1v1h1V19L2,19z M2,21H1v1h1V21L2,21z M2,23H1v1h1
		V23L2,23z M2,25H1v1h1V25L2,25z M2,27H1v1h1V27L2,27z M2,29H1v1h1V29L2,29z M2,31H1v1h1V31L2,31z M2,33H1v1h1V33L2,33z M2,35H1v1h1
		V35L2,35z M2,37H1v1h1V37L2,37z M2,39H1v1h1V39L2,39z M2,41H1v1h1V41L2,41z M2,43H1v1h1V43L2,43z M2,45H1v1h1V45L2,45z M2,47H1v1h1
		V47L2,47z M2,49H1v1l0,0v1h1v-1l0,0V49L2,49z M4,50H3v1h1V50L4,50z M6,50H5v1h1V50L6,50z M8,50H7v1h1V50L8,50z M10,50H9v1h1V50
		L10,50z M12,50h-1v1h1V50L12,50z M14,50h-1v1h1V50L14,50z M16,50h-1v1h1V50L16,50z M18,50h-1v1h1V50L18,50z M20,50h-1v1h1V50L20,50
		z M22,50h-1v1h1V50L22,50z M24,50h-1v1h1V50L24,50z M26,50h-1v1h1V50L26,50z M28,50h-1v1h1V50L28,50z M30,50h-1v1h1V50L30,50z
		 M32,50h-1v1h1V50L32,50z M34,50h-1v1h1V50L34,50z M36,50h-1v1h1V50L36,50z M38,50h-1v1h1V50L38,50z M40,50h-1v1h1V50L40,50z
		 M42,50h-1v1h1V50L42,50z M44,50h-1v1h1V50L44,50z M46,50h-1v1h1V50L46,50z M48,50h-1v1h1V50L48,50z M50,50h-1v1h1V50L50,50z
		 M51,50h-1v1h1V50L51,50z M51,48h-1v1h1V48L51,48z M51,46h-1v1h1V46L51,46z M51,44h-1v1h1V44L51,44z M51,42h-1v1h1V42L51,42z
		 M51,40h-1v1h1V40L51,40z M51,38h-1v1h1V38L51,38z M51,36h-1v1h1V36L51,36z M51,34h-1v1h1V34L51,34z M51,32h-1v1h1V32L51,32z
		 M51,30h-1v1h1V30L51,30z M51,28h-1v1h1V28L51,28z M51,26h-1v1h1V26L51,26z M51,24h-1v1h1V24L51,24z M51,22h-1v1h1V22L51,22z
		 M51,20h-1v1h1V20L51,20z M51,18h-1v1h1V18L51,18z M51,16h-1v1h1V16L51,16z M51,14h-1v1h1V14L51,14z M51,12h-1v1h1V12L51,12z
		 M51,10h-1v1h1V10L51,10z M51,8h-1v1h1V8L51,8z M51,6h-1v1h1V6L51,6z M51,4h-1v1h1V4L51,4z"/>
</g>
<path class="st18" d="M32,30.1c-0.8,0-1.4,0.3-2,0.8l-7.1-4.1C23,26.5,23,26.2,23,26s0-0.5-0.1-0.7l7.1-4.1c0.5,0.5,1.2,0.8,2,0.8
	c1.7,0,3-1.3,3-3s-1.3-3-3-3c-1.7,0-3,1.3-3,3c0,0.2,0,0.5,0.1,0.7L22,23.8c-0.5-0.5-1.3-0.8-2-0.8c-1.7,0-3,1.3-3,3s1.3,3,3,3
	c0.8,0,1.5-0.3,2-0.8l7.1,4.2c0,0.2-0.1,0.4-0.1,0.7c0,1.6,1.3,2.9,2.9,2.9s2.9-1.3,2.9-2.9C34.9,31.4,33.6,30.1,32,30.1z"/>
</svg>
