<?xml version="1.0" encoding="utf-8"?>
<!-- Generator: Adobe Illustrator 21.1.0, SVG Export Plug-In . SVG Version: 6.00 Build 0)  -->
<svg version="1.1" id="Layer_1" xmlns="http://www.w3.org/2000/svg" xmlns:xlink="http://www.w3.org/1999/xlink" x="0px" y="0px"
	 viewBox="0 0 20 165" style="enable-background:new 0 0 20 165;" xml:space="preserve">
<g>
	<path style="fill:#F7F5EF;" d="M1,161.2h1.5c2.4,0,3.6-1.4,3.6-4.1V89.8c0-4.3,2.4-7.5,7.1-9.4c-4.7-1.8-7.1-5-7.1-9.4v-64
		c0-2.7-1.2-4.1-3.6-4.1H1V1h1.5c3.3,0,6,1,8.2,3c2.2,2,3.3,4.5,3.3,7.3v64c0,1.1,0.4,2.1,1.2,2.9c0.8,0.8,1.7,1.2,2.9,1.2h1v1.8h-1
		c-1.1,0-2.1,0.4-2.9,1.2c-0.8,0.8-1.2,1.7-1.2,2.9v67.3c0,2.9-1.1,5.3-3.3,7.3c-2.2,2-4.9,3-8.2,3H1V161.2z M10,9.4v63.1
		c0,2.7,1.2,4.8,3.7,6.4C12.6,77.7,12,76,12,74V10.7c0-2.7-1.1-4.8-3.4-6.3C9.6,5.7,10,7.4,10,9.4z M12,153.4V86.7
		c0-2,0.5-3.7,1.6-4.9c-2.4,1.5-3.7,3.7-3.7,6.4v66.4c0,2.1-0.4,3.8-1.3,5C10.9,158.1,12,156,12,153.4z"/>
</g>
</svg>
