<?xml version="1.0" encoding="utf-8"?>
<!-- Generator: Adobe Illustrator 21.1.0, SVG Export Plug-In . SVG Version: 6.00 Build 0)  -->
<svg version="1.1" id="Layer_1" xmlns="http://www.w3.org/2000/svg" xmlns:xlink="http://www.w3.org/1999/xlink" x="0px" y="0px"
	 viewBox="0 0 137 26" style="enable-background:new 0 0 137 26;" xml:space="preserve">
<g>
	<g>
		<path style="fill:#F7F5EF;" d="M10.8,10.8c-0.3,0.1-0.5,0.2-0.7,0.3c0,0,0,0,0,0c0.2,0.1,0.3,0.1,0.6,0.1c0,0,0.1,0,0.1,0
			c0.2-0.2,0.4-0.5,0.6-0.7c-0.1,0-0.1,0-0.2,0.1c0,0,0,0,0.1,0.1c-0.1,0-0.1,0-0.2,0.1C10.9,10.7,10.8,10.8,10.8,10.8"/>
		<path style="fill:#F7F5EF;" d="M12,9.9C12,9.9,12,9.9,12,9.9c0.1-0.1,0.3-0.2,0.3-0.2c0.1-0.1,0.2-0.1,0.3-0.2c0-0.1,0-0.1,0-0.2
			l0,0c0-0.1-0.1-0.2-0.1-0.3L12,9.1c0,0.2,0,0.4,0,0.6C12,9.8,12,9.9,12,9.9"/>
		<path style="fill:#F7F5EF;" d="M7.5,19.1c0-0.2,0-0.4,0-0.7l0-0.3c-0.2-1.3-0.6-3.4-0.1-3.9c0.1-0.1,0.7-0.2,0.7-0.2
			c0.4,0,0.9,0.1,1.5,0.2c0-0.2,0-0.4,0.1-0.6c0-0.2,0.1-0.5,0.1-0.4c0.1-0.3,0.1-0.5,0.2-0.7c0.1-0.2,0.3-0.6,0.5-1
			c-0.2,0-0.4,0-0.6-0.1c-0.1-0.1-0.3-0.1-0.4-0.2L9.4,11l0,0c0,0,0,0,0,0l0.3-0.4c0.1,0.1,0.3-0.4,0.7-0.6
			c-0.2-0.2-0.3-0.9,0.2-1.5c0.3-0.3,0.9-0.4,1.1-0.3c0.1,0,0.3,0.2,0.5,0.4c0.2,0.1,0.4,0.3,0.5,0.8l0,0l0,0l0,0c0,0,0,0,0,0
			c1.7-1,4.5-1.6,8.9-0.5c1,0,2.8,0.1,2.8,0.1l0.2,0c0,0,3.1,0.5,4.1,0.7l0.1-0.2l0.2-0.3c0,0,0.1-0.1,0.1-0.1
			c1.6-1.6,3.6-0.7,3.9-0.9c0.9-0.6,1.6-1.3,1-1.5c-1-1.2-1.4-3-1.2-3.3c0.2-0.3,1-0.7,0.5-1.3c-0.5,0.8-1,0.3-1,0.3
			s-0.3-0.6-1.1-0.7C30.7,1.5,30,2,30,2s-0.9-0.1-0.7-1c-0.8,0.1-0.4,1.7-0.4,1.7L27.2,3l-0.3,0c0,0-1.2,0.1-1.6,0
			c-1.1-0.2-3.8-0.2-3.8-0.2l-0.3,0c0,0-6.9-0.2-11.4-0.2l-0.3,0c-1.3,0-2.4,0-3.3,0.1C4.3,2.9,3.4,3.7,3,4.5C2.5,5.4,2,7,2,7.8
			C1.9,8.4,1.9,9,2,9.5C2,9.8,2,10.1,2,10.5c0,0.4-0.2,0.7-0.3,1c-0.2,0.3-0.3,0.6-0.3,1c0,0.5,0.2,0.8,0.4,1.2
			C2.1,14,2,14.5,2,14.5s0.7-0.4,0.8-1.3C2.9,12.3,2.2,12,2,11.7c0,0,0,0,0-0.1c0.2-0.3,0.3-0.7,0.3-1.2c0-0.3,0-0.6-0.1-1
			c0-0.5-0.1-1,0-1.7c0-0.3,0.1-0.8,0.3-1.3c0,0.2,0,0.3,0,0.3s1.5,4.9,1.4,5.5c0,0.4-0.2,0.9-0.5,1.5c-0.1,0.2,0,0.1-0.2,0.4
			C3.2,14.5,3.1,14.9,3,15c-0.1,0.3,0.2,2.8,0.2,2.8l0,0.3c0.1,0.9,0.3,1.7,0.2,2.4c-0.1,0.8-0.1,1.6,0.4,1.6c0.5,0,0.7,0,1.5,0
			c0.1-1.3-1-1.2-1-2.4c0-0.5,0.1-1.5,0.1-1.5l0-0.3c0,0,0.3-1.1,0.6-1.1C5.3,17,5.8,18,5.8,18l0.1,0.3c0,0,1.3,5,2,5h1.6
			C9.5,21.5,7.5,21.9,7.5,19.1"/>
		<path style="fill:#F7F5EF;" d="M16.4,22.4C16.4,22.4,16.4,22.4,16.4,22.4l0-0.4c-0.2,0-0.3,0-0.5,0c-0.1,0-0.2-0.1-0.3-0.1
			c0,0.1,0,0.1,0,0.1C16,22.2,16.2,22.4,16.4,22.4C16.4,22.4,16.4,22.4,16.4,22.4"/>
		<path style="fill:#F7F5EF;" d="M22.7,18.6c0.1-0.2,0.1-0.4,0.1-0.6c0-0.7-0.5-1.9-0.5-1.9l-0.1-0.2c0,0-0.9-1.8-0.8-2.7
			c0,0.1,0.1,0.2,0.2,0.2c0.1,0,0.2,0,0.2-0.1c0.2-0.2,0-0.7,0-0.7s0.2,0,0.4,0c0.1,0,0.2,0,0.2,0c0-0.1-0.7-0.3-0.7-0.4
			c0-0.2-0.3-0.5-0.3-0.5s0.2-0.4,0.2-0.4c0,0,0,0,0,0c-0.1,0-0.3,0.2-0.4,0.2c-0.1,0,0-0.4-0.1-0.4h0c0,0-0.1,0.1-0.2,0.3
			c0,0.1-0.1,0.2,0,0.3c0,0.2,0.7,0.3,0.7,0.4c0,0.1-0.6,0-0.6,0s0.2,0.5,0,0.7c-0.2,0.3-0.4,0.1-0.4-0.1c-0.1,0.9,0.8,2.7,0.8,2.7
			l0.1,0.2c0,0,0.5,1.2,0.5,1.9c0,0.4-0.1,0.7-0.3,1.1C22.1,18.6,22.5,18.6,22.7,18.6"/>
		<path style="fill:#F7F5EF;" d="M14.1,14.3c0.2,0.2,0.3,0.3,0.4,0.5c0.3,0.5,0.7,0.8,1.1,0.9c-0.1-0.1-0.2-0.2-0.3-0.4
			C15.1,14.9,14.6,14.5,14.1,14.3"/>
		<path style="fill:#F7F5EF;" d="M17,22.1c0,0.1-0.1,0.3-0.1,0.5c0.1,0,0.1,0,0.2,0C17.1,22.3,17.1,22.2,17,22.1"/>
		<path style="fill:#F7F5EF;" d="M33.2,13.6c0.6,0.8,1.4,0.5,1.4,0.5s-0.7-1.2-0.6-1.3c0.1-0.1,0.7-0.2,0.5-0.7
			c-0.7-0.5-0.9-0.7-1.3-1c-0.5-0.3-1.5,0-1.5,0l-1.3-0.5l-0.2-0.1c0,0-0.7-0.2-0.9-0.2C28.5,10.2,25,9.7,25,9.7l-0.2,0
			c0,0-1.7-0.1-2.7-0.1c-4.7-1.2-7.5-0.4-9.2,0.8c0,0-0.2,0.1-0.2,0.1c-0.1,0-0.1,0.1-0.1,0.1c-0.1,0-0.2,0-0.3,0
			c-0.1,0-0.1,0-0.2,0h0c0.3-0.3,0.4-0.7,0.4-1.3l0,0c-0.1-0.4-0.3-0.6-0.5-0.6c-0.3-0.1-0.6,0-0.9,0.3c-0.3,0.3-0.4,0.6-0.3,0.9
			c0.1,0.3,0.2,0.5,0.4,0.7c-0.5,0.2-1,0.1-1.1,0l-0.3,0.3C9.9,11,10,11,10.1,11.1c0.4,0.1,1.1,0.1,1.6-0.2c0.1,0.1,0.3,0.1,0.4,0.2
			c-0.7,0.8-1.1,1.5-1.4,2c-0.1,0.2-0.2,0.4-0.2,0.7c0,0-0.1,0.2-0.1,0.4c-0.1,0.7-0.1,1.5,0,1.9c0,0.5,0.9,2.6,0.9,3.3
			c0.1,0,0,0.2,0,0.2c0,0.5-0.2,0.8-0.2,1.2c0,0.5,0.3,1.4,0.3,1.4s-0.1,1.5,0.2,1.5c0.3,0,0.8,0,1.3,0c0-0.7-0.6-0.8-0.6-1.1
			c0-0.2,0.1-1.7,0.3-1.7c0.1,0,0.5-0.9,0.6-1.1l0,0c0,0-0.3-0.7-0.1-1.3c-0.6-0.7-0.6-1.4-0.5-1.7c-0.1-0.1-0.1-0.2-0.1-0.3
			c-0.8-0.6-0.7-1.8-0.5-2.5c0.2-0.5,0.8-0.5,1.4-0.2c0,0,0,0,0,0c0.7,0,1.8,0.5,2.3,1.4c0.2,0.4,0.5,0.6,0.9,0.7
			c0.2,0,0.5,0,0.6-0.1c0.5-0.2,0.6-0.7,0.9-0.7c0-0.1,0-0.3,0-0.3l0-0.2c0,0,0,0,0,0c0.2-2.2,1.3-3.1,1.3-3.1s-0.4-0.4-0.4-0.4
			c0,0,0.4,0.1,0.5,0.1c0,0-0.1-0.5-0.1-0.5c0,0,0.4,0.3,0.4,0.3c0,0-0.1-0.4,0-0.4c0.1,0,0.2,0.3,0.3,0.4l0,0h0
			c0.1-0.1,0.2-0.4,0.2-0.4c0.1,0,0.1,0.2,0.1,0.3c0,0,0,0,0.1,0c0,0,0.1,0,0.1,0c0,0,0.1,0,0.1,0c0,0,0.1,0,0.1,0c0,0,0.1,0,0.1,0
			c0.1,0,0.1-0.1,0.2-0.1h0l0,0c0.1,0,0.3,0,0.4,0.2c0,0,0.1,0,0.1,0c0.1,0,0.1,0,0.2,0c0.1,0,0.2,0.1,0.2,0.2c0,0.1,0,0.2-0.1,0.5
			c0.1,0.1,0.1,0.2,0.2,0.3c0.1,0,0.1,0.1,0.2,0.1c0.2,0.1,0.6,0.3,0.5,0.6c-0.1,0.2-0.2,0.3-0.5,0.3h0c0,0.2-0.1,0.4-0.2,0.5
			c-0.1,0.1-0.2,0.2-0.3,0.2c0.1,0.7,0.5,1.6,0.7,2l0,0l0,0l0.1,0.2l0,0l0,0c0,0.1,0.5,1.3,0.6,2c0,0.3-0.1,0.7-0.2,1
			c0.1,0.6,0.4,1.7,0.2,2.1c-0.2,0.6-0.2,2.1,0.2,2.1c0.3,0,1,0,1.3,0c0-0.6-0.7-0.6-0.7-0.9c0-0.2,0.8-2.8,0.8-2.8l0.1-0.2
			c0,0,0.1-0.2,0.2-0.2c0.1,0,0.6,1.4,0.6,1.4s0,0.5,0.3,1.1c0.2,0.5,0.8,2.1,1.1,2.1c0.4,0,0.4,0,1,0c0-0.8-0.9-0.7-0.9-1.3
			c0-0.6-0.4-1.9-0.1-3.6c0,0,0.6-0.5,0.6-0.5l0.2-0.2c0,0,1.3-2.1,1.7-2.5c0,0,0.2-0.1,0.2-0.1s1.6,1.3,3.4,0.9
			c0.1,0,0.2,0.3,0.4,0.3c0.2,0,1-0.7,1-0.9C34.4,15.7,33.1,14.9,33.2,13.6 M11.7,10.4c-0.2-0.2-0.4-0.4-0.4-0.6
			c0-0.2,0-0.3,0.2-0.4c0.1-0.1,0.3-0.2,0.4-0.2c0.1,0,0.1,0.2,0.2,0.3C12,9.8,11.9,10.1,11.7,10.4"/>
		<path style="fill:#F7F5EF;" d="M19.3,21.8l-0.8,0.7l-0.2,0c0,0-0.4,0-0.5,0c-0.1,0.3-0.3,1,0,1.3c0.3,0.3,1.3,0.2,1.5,0.2
			c0.2,0,0,0.5-0.1,0.5c-0.2,0-0.9,0-1,0.1c0,0.1,0.3,0.2,0.4,0.2c0.2,0,0.3,0.1,0.2,0.1c-0.1,0.1-2-0.1-1.8-0.9
			c-0.2,0-0.4,0.1-0.5,0.2c-0.1,0-0.2-0.1-0.1-0.2c0.1-0.1,0.8-0.5,0.8-0.5l0-1c-0.2,0-0.3,0-0.4,0c-0.1-0.1-0.5-0.2-0.4-0.1
			c-0.5-0.2-1.7-1-2.3-2L14,20.3c0,0-0.3-0.7-0.1-1.3c-0.8-0.9-0.6-1.8-0.4-1.8c-1.1-0.5-1-1.9-0.7-2.7c0.3-0.8,2-0.2,2.6,0.9
			c0.6,1.1,2.1,1.3,2.6,1.1c0.5-0.2,0.6-0.7,0.9-0.7c0-0.1,0-0.3,0-0.3l0-0.2c0,0,0,0,0,0c0.2-2.2,1.3-3.1,1.3-3.1s-0.4-0.4-0.4-0.4
			c0,0,0.4,0.1,0.5,0.1c0,0-0.1-0.5-0.1-0.5c0,0,0.4,0.3,0.4,0.3c0,0-0.1-0.4,0-0.4c0.1,0,0.2,0.4,0.3,0.4c0.1,0,0.2-0.4,0.3-0.4
			c0.1,0,0,0.4,0.1,0.4c0.1,0,0.3-0.2,0.4-0.2c0.1,0-0.2,0.4-0.2,0.4s0.3,0.3,0.3,0.5c0,0.2,0.7,0.3,0.7,0.4c0,0.1-0.6,0-0.6,0
			s0.2,0.5,0,0.7c-0.2,0.3-0.4,0.1-0.4-0.1c-0.1,0.9,0.8,2.7,0.8,2.7l0.1,0.2c0,0,0.5,1.2,0.5,1.9c0.1,1.7-3.3,3.7-3.3,3.7
			L19.3,21.8z"/>
	</g>
	<g>
		<polygon style="fill:#F7F5EF;" points="46.7,23.4 46.7,1.7 46.5,1.7 46.5,23.7 50,23.7 50,23.4 		"/>
		<polygon style="fill:#F7F5EF;" points="53.1,11.4 56.2,1.7 56.1,1.7 53,11.1 		"/>
		<polygon style="fill:#F7F5EF;" points="51.6,18.8 50.3,14.2 50.3,15.3 51.4,19.1 54.1,19.1 54.2,18.8 		"/>
		<polygon style="fill:#F7F5EF;" points="56.1,23.4 56.1,13.8 55.9,14.6 55.9,23.7 59.3,23.7 59.3,23.4 		"/>
		<polygon style="fill:#F7F5EF;" points="61.3,23.4 61.3,1.7 61.1,1.7 61.1,23.7 64.5,23.7 64.5,23.4 		"/>
		<path style="fill:#F7F5EF;" d="M73.4,12.6c-0.1,0.1-0.2,0.1-0.4,0.2c0.1,0,0.1,0,0.2,0C73.3,12.8,73.4,12.7,73.4,12.6"/>
		<polygon style="fill:#F7F5EF;" points="71.3,11.1 71.3,4.7 70,4.7 70,5 71,5 71,11.1 		"/>
		<polygon style="fill:#F7F5EF;" points="71.6,23.4 71.6,14.3 70,14.3 70,14.6 71.3,14.6 71.3,23.7 74.8,23.7 74.8,23.4 		"/>
		<polygon style="fill:#F7F5EF;" points="66.5,23.4 66.5,1.7 66.3,1.7 66.3,23.7 69.7,23.7 69.7,23.4 		"/>
		<polygon style="fill:#F7F5EF;" points="81,8 80.9,9.4 81.5,15.8 81.8,15.8 		"/>
		<polygon style="fill:#F7F5EF;" points="82.6,23.4 82.1,19.2 79.8,19.2 79.7,19.5 81.9,19.5 82.3,23.7 85.7,23.7 85.7,23.4 		"/>
		<polygon style="fill:#F7F5EF;" points="75.9,23.4 78.2,1.7 78,1.7 75.6,23.7 79,23.7 79.1,23.4 		"/>
		<rect x="108.6" y="13.4" style="fill:#F7F5EF;" width="2.7" height="0.3"/>
		<polygon style="fill:#F7F5EF;" points="112.2,20.6 114.2,1.7 113.9,1.7 111.9,20.6 		"/>
		<polygon style="fill:#F7F5EF;" points="116.9,7.9 116.8,9.3 117.5,15.9 117.8,15.9 		"/>
		<polygon style="fill:#F7F5EF;" points="118.5,23.4 118.1,19.2 115.8,19.2 115.7,19.5 117.8,19.5 118.3,23.7 121.8,23.7 
			121.8,23.4 		"/>
		<polygon style="fill:#F7F5EF;" points="112.3,23.4 111.9,23.4 105.2,23.4 105.2,1.7 105,1.7 105,23.7 111.6,23.7 112,23.7 
			115,23.7 115,23.4 		"/>
		<rect x="108.6" y="4.7" style="fill:#F7F5EF;" width="3.9" height="0.3"/>
		<polygon style="fill:#F7F5EF;" points="123.7,23.4 123.7,4.7 121.2,4.7 121.2,1.7 121,1.7 121,5 123.4,5 123.4,23.7 126.9,23.7 
			126.9,23.4 		"/>
		<rect x="127.1" y="4.7" style="fill:#F7F5EF;" width="2.2" height="0.3"/>
		<polygon style="fill:#F7F5EF;" points="59.3,1.7 59.3,23.1 56.6,23.1 56.6,11.5 54.3,18.5 52.1,18.5 50,11.5 50,23.1 47.2,23.1 
			47.2,1.7 49.9,1.7 53.2,12.4 56.6,1.7 		"/>
		<polygon style="fill:#F7F5EF;" points="56.6,23.1 56.6,11.5 54.3,18.5 52.1,18.5 50,11.5 50,23.1 47.2,23.1 47.2,1.7 49.9,1.7 
			53.2,12.4 56.6,1.7 59.3,1.7 59.3,23.1 		"/>
		<polygon style="fill:#F7F5EF;" points="90.9,23.4 90.9,1.7 90.6,1.7 90.6,23.7 94.2,23.7 94.2,23.4 		"/>
		<polygon style="fill:#F7F5EF;" points="97.3,11.4 100.4,1.7 100.3,1.7 97.2,11.1 		"/>
		<polygon style="fill:#F7F5EF;" points="95.8,18.8 94.5,14.2 94.5,15.3 95.6,19.1 98.3,19.1 98.4,18.8 		"/>
		<polygon style="fill:#F7F5EF;" points="100.3,23.4 100.3,13.8 100.1,14.6 100.1,23.7 103.5,23.7 103.5,23.4 		"/>
		<polygon style="fill:#F7F5EF;" points="103.5,1.7 103.5,23.1 100.8,23.1 100.8,11.5 98.5,18.5 96.3,18.5 94.2,11.5 94.2,23.1 
			91.4,23.1 91.4,1.7 94.1,1.7 97.4,12.4 100.8,1.7 		"/>
		<polygon style="fill:#F7F5EF;" points="100.8,23.1 100.8,11.5 98.5,18.5 96.3,18.5 94.2,11.5 94.2,23.1 91.4,23.1 91.4,1.7 
			94.1,1.7 97.4,12.4 100.8,1.7 103.5,1.7 103.5,23.1 		"/>
		<rect x="61.8" y="1.7" style="fill:#F7F5EF;" width="2.8" height="21.4"/>
		<path style="fill:#F7F5EF;" d="M72.1,14h-2.3v9.1H67V1.7h5.7c1,0,1.8,0.9,1.8,1.8V11c0,0.8-0.4,1.3-0.9,1.5c0.8,0.2,1.3,1,1.3,1.8
			v8.8h-2.8V14z M69.7,11.2h2V4.4h-2V11.2z"/>
		<path style="fill:#F7F5EF;" d="M82.6,18.9h-3.1l-0.4,4.2h-2.8l2.3-21.4h4.9l2.2,21.4H83L82.6,18.9z M79.9,16.1h2.4L81.1,4.4
			L79.9,16.1z"/>
		<path style="fill:#F7F5EF;" d="M119.5,1.7h-4.9l-2,18.6h-4.2v-7.2h2.9v-2.8h-2.9V4.4h4.1V1.7h-6.9v21.4h6.7h0.4h2.3l0.4-4.2h3.1
			l0.4,4.2h2.7L119.5,1.7z M115.8,16.1L117,4.4l1.2,11.7H115.8z"/>
		<polygon style="fill:#F7F5EF;" points="124.1,4.4 121.7,4.4 121.7,1.7 129.3,1.7 129.3,4.4 126.9,4.4 126.9,23.1 124.1,23.1 		"/>
		<path style="fill:#F7F5EF;" d="M133.9,1.7c-0.7,0-1.3,0.6-1.3,1.3c0,0.7,0.6,1.3,1.3,1.3c0.7,0,1.3-0.6,1.3-1.3
			C135.2,2.2,134.6,1.7,133.9,1.7 M133.9,4.1c-0.6,0-1.1-0.5-1.1-1.1c0-0.6,0.5-1.1,1.1-1.1c0.6,0,1.1,0.5,1.1,1.1
			C135,3.6,134.5,4.1,133.9,4.1"/>
		<path style="fill:#F7F5EF;" d="M133.4,2.2c0.1,0,0.3,0,0.4,0c0.2,0,0.4,0,0.5,0.1c0.1,0.1,0.1,0.2,0.1,0.3c0,0.2-0.1,0.3-0.3,0.4
			v0c0.1,0,0.2,0.1,0.2,0.3c0,0.2,0.1,0.4,0.1,0.4l-0.3,0c0,0-0.1-0.2-0.1-0.3c0-0.2-0.1-0.2-0.2-0.2l-0.1,0l0,0.6l-0.3,0L133.4,2.2
			z M133.7,2.9l0.1,0c0.2,0,0.3-0.1,0.3-0.2c0-0.1-0.1-0.2-0.2-0.2c-0.1,0-0.1,0-0.2,0L133.7,2.9z"/>
	</g>
</g>
</svg>
