<?xml version="1.0" encoding="utf-8"?>
<!-- Generator: Adobe Illustrator 21.1.0, SVG Export Plug-In . SVG Version: 6.00 Build 0)  -->
<svg version="1.1" id="Layer_1" xmlns="http://www.w3.org/2000/svg" xmlns:xlink="http://www.w3.org/1999/xlink" x="0px" y="0px"
	 viewBox="0 0 195 147" style="enable-background:new 0 0 195 147;" xml:space="preserve">
<style type="text/css">
	.st0{fill:#F7F5EF;}
</style>
<g>
	<path class="st0" d="M78.6,20.5c-0.6,0.3-1,0.5-1.4,0.6c0,0,0.1,0,0.1,0c0.3,0.1,0.7,0.2,1.1,0.2c0.1,0,0.2,0,0.3,0
		c0.3-0.5,0.7-1,1.2-1.4c-0.1,0-0.3,0.1-0.4,0.2c0,0,0.1,0.1,0.1,0.1c-0.1,0-0.3,0.1-0.4,0.1C78.9,20.4,78.7,20.5,78.6,20.5"/>
	<path class="st0" d="M81,18.8c0.1-0.1,0.1-0.1,0.2-0.1c0,0,0.4-0.3,0.4-0.3c0.2-0.1,0.3-0.2,0.5-0.4c0-0.1,0-0.2,0-0.3l0,0
		c0-0.2-0.1-0.4-0.2-0.6L81,17.2c0.1,0.4,0.1,0.8,0,1.1C81,18.5,81,18.7,81,18.8"/>
	<path class="st0" d="M72.1,37c0-0.3,0-0.8,0-1.3L72,35.1c-0.3-2.7-1.1-6.8-0.1-7.7c0.1-0.1,1.5-0.4,1.5-0.3c0.8,0,1.8,0.1,3,0.4
		c0-0.4,0.1-0.8,0.1-1.2c0-0.4,0.2-0.9,0.2-0.9c0.1-0.5,0.3-1,0.5-1.4c0.2-0.5,0.6-1.2,1.1-1.9c-0.4,0-0.8-0.1-1.1-0.2
		c-0.3-0.1-0.5-0.2-0.7-0.4l-0.5-0.5l0.1-0.1c0,0-0.1-0.1-0.1-0.1l0.7-0.7c0.2,0.2,0.5-0.9,1.5-1.2c-0.4-0.4-0.6-1.8,0.5-3
		c0.5-0.6,1.7-0.8,2.3-0.7c0.2,0.1,0.6,0.3,1,0.7c0.4,0.2,0.9,0.7,1,1.6l0,0l0,0l0,0c0,0,0,0,0,0c3.5-2,8.9-3.2,17.6-0.9
		c2-0.1,5.5,0.1,5.5,0.1l0.5,0c0,0,6.2,1,8.1,1.3l0.3-0.4l0.5-0.6c0,0,0.1-0.2,0.2-0.2c3.2-3.1,7.1-1.4,7.8-1.8
		c1.7-1.1,3.3-2.7,2-2.9c-1.9-2.5-2.8-5.9-2.5-6.5c0.3-0.6,2-1.4,0.9-2.7c-1,1.5-2,0.6-2,0.6s-0.7-1.2-2.1-1.4
		C118.1,2,116.8,3,116.8,3s-1.8-0.1-1.4-2c-1.5,0.2-0.8,3.3-0.8,3.3L111.2,5l-0.6,0.1c0,0-2.3,0.2-3.1,0.1c-2.2-0.3-7.6-0.4-7.6-0.4
		l-0.6,0.1c0,0-13.7-0.4-22.6-0.4l-0.6,0c-2.5,0-4.8,0.1-6.6,0.2C65.8,4.9,64,6.4,63.1,8c-1,1.8-1.9,5-2,6.5c-0.1,1.4,0,2.5,0.1,3.5
		c0.1,0.6,0.1,1.2,0.1,1.9c0,0.8-0.3,1.4-0.6,2c-0.3,0.6-0.6,1.1-0.7,1.9c-0.1,1,0.3,1.6,0.9,2.3c0.6,0.7,0.2,1.8,0.2,1.8
		s1.4-0.8,1.6-2.7c0.2-1.8-1-2.4-1.4-3c0,0,0-0.1,0.1-0.1c0.3-0.7,0.7-1.4,0.7-2.3c0-0.6,0-1.3-0.1-1.9c-0.1-1-0.2-2.1-0.1-3.4
		c0-0.6,0.2-1.6,0.5-2.6c0,0.3,0.1,0.5,0.1,0.5s2.9,9.7,2.8,10.9c-0.1,0.7-0.5,1.9-0.9,3c-0.2,0.5-0.1,0.2-0.3,0.8
		c-0.3,0.8-0.6,1.4-0.8,1.8c-0.2,0.6,0.4,5.5,0.4,5.5l0.1,0.6c0.2,1.7,0.6,3.4,0.4,4.8c-0.3,1.6-0.3,3.3,0.8,3.3c1,0,1.4,0,3,0
		c0.3-2.6-1.9-2.5-1.9-4.9c0-0.9,0.2-3,0.2-3l0.1-0.6c0,0,0.6-2.2,1.3-2.2c0.3,0.4,1.2,2.4,1.2,2.4l0.3,0.6c0,0,2.6,9.9,4,9.9h3.2
		C76.1,41.8,72.1,42.5,72.1,37"/>
	<path class="st0" d="M89.8,43.7c0,0,0.1,0,0.1,0l0-0.8c-0.3,0-0.6,0-0.9,0c-0.1-0.1-0.4-0.2-0.6-0.2c0,0.1,0,0.2,0.1,0.3
		C89,43.3,89.5,43.6,89.8,43.7C89.8,43.7,89.8,43.7,89.8,43.7"/>
	<path class="st0" d="M102.3,36.1c0.1-0.4,0.2-0.8,0.2-1.2c-0.1-1.4-1.1-3.8-1.1-3.8l-0.2-0.4c0,0-1.8-3.6-1.5-5.4
		c0,0.2,0.1,0.4,0.3,0.4c0.1,0,0.3-0.1,0.5-0.3c0.4-0.5,0.1-1.4,0.1-1.4s0.5,0.1,0.8,0.1c0.2,0,0.3,0,0.4-0.1
		c0.1-0.2-1.3-0.6-1.3-0.9c0-0.3-0.5-0.9-0.5-0.9s0.5-0.7,0.3-0.8c0,0,0,0,0,0c-0.2,0-0.6,0.4-0.8,0.4c-0.1,0,0-0.9-0.2-0.9h0
		c-0.1,0-0.2,0.3-0.3,0.5c-0.1,0.2-0.1,0.4-0.1,0.5c0,0.3,1.4,0.7,1.3,0.9c-0.1,0.2-1.2,0-1.2,0s0.4,0.9-0.1,1.4
		c-0.5,0.5-0.8,0.2-0.8-0.2c-0.3,1.8,1.5,5.4,1.5,5.4l0.2,0.4c0,0,1,2.5,1.1,3.9c0,0.7-0.2,1.5-0.7,2.2
		C101.2,36.1,101.9,36.1,102.3,36.1"/>
	<path class="st0" d="M85.2,27.6c0.3,0.3,0.6,0.7,0.8,1c0.5,0.9,1.3,1.5,2.2,1.9c-0.2-0.2-0.4-0.5-0.6-0.8
		C87.2,28.7,86.2,28,85.2,27.6"/>
	<path class="st0" d="M91,42.9c-0.1,0.2-0.1,0.6-0.2,1c0.1,0,0.3,0,0.4,0C91.3,43.5,91.2,43.2,91,42.9"/>
	<path class="st0" d="M123.3,26.1c1.2,1.6,2.7,1,2.7,1s-1.5-2.4-1.2-2.6c0.3-0.2,1.4-0.4,0.9-1.4c-1.5-1-1.8-1.4-2.7-2
		c-0.9-0.6-3,0.1-3,0.1l-2.7-0.9l-0.4-0.1c0,0-1.3-0.4-1.8-0.5c-1.2-0.2-8.2-1.3-8.2-1.3l-0.5,0c0,0-3.5-0.2-5.4-0.1
		c-9.4-2.5-15-0.8-18.2,1.6c0,0-0.4,0.3-0.4,0.3c-0.1,0.1-0.2,0.2-0.3,0.2c-0.2,0-0.4,0-0.6,0c-0.1,0-0.2-0.1-0.3-0.1h0
		c0.6-0.6,0.9-1.5,0.7-2.5l0,0c-0.2-0.9-0.7-1.1-1-1.2c-0.6-0.2-1.3,0.1-1.8,0.6c-0.5,0.5-0.7,1.2-0.5,1.8c0.2,0.5,0.5,1,0.8,1.4
		c-1,0.3-1.9,0.2-2.1,0l-0.6,0.7c0.1,0.1,0.3,0.2,0.5,0.3c0.8,0.3,2.1,0.2,3.1-0.3c0.3,0.2,0.6,0.3,0.8,0.3
		c-1.5,1.5-2.3,3.1-2.7,3.9c-0.2,0.4-0.4,0.9-0.5,1.3c0,0-0.1,0.5-0.2,0.8c-0.2,1.5-0.1,3-0.1,3.7c0.1,1.1,1.7,5.2,1.8,6.5
		c0.1,0,0.1,0.5,0,0.5c-0.1,1-0.4,1.6-0.4,2.4c-0.1,1,0.6,2.9,0.6,2.9s-0.1,3,0.4,3c0.5,0,1.6,0.1,2.6,0.1c0-1.4-1.2-1.7-1.1-2.1
		c0-0.4,0.1-3.4,0.5-3.5c0.3-0.1,1-1.8,1.2-2.3l-0.1-0.1c0,0-0.5-1.5-0.2-2.6C82,34.4,81.8,33,82,32.4c-0.1-0.2-0.2-0.4-0.3-0.6
		c-1.6-1.2-1.4-3.6-0.9-5c0.3-0.9,1.6-0.9,2.9-0.3c0,0,0,0,0,0c1.5,0,3.6,1.1,4.6,2.8c0.4,0.7,1,1.2,1.7,1.5c0.5,0,0.9,0,1.2-0.1
		c1-0.4,1.2-1.4,1.8-1.4c0-0.2,0-0.7,0-0.7l0-0.4c0,0,0,0,0,0c0.4-4.5,2.6-6.1,2.6-6.1s-0.8-0.8-0.8-0.9c0.1-0.1,0.9,0.2,1,0.2
		c0.1-0.1-0.3-0.9-0.2-1c0.1-0.1,0.8,0.6,0.8,0.5c0.1,0-0.1-0.8,0-0.9c0.1-0.1,0.4,0.7,0.5,0.8l0,0h0c0.1-0.2,0.4-0.8,0.5-0.8
		c0.1,0,0.1,0.3,0.1,0.6c0,0,0.1,0,0.1-0.1c0.1,0,0.2-0.1,0.3-0.1c0.1,0,0.2,0,0.2,0c0.1-0.1,0.2-0.1,0.2-0.1c0,0,0.1,0,0.2,0.1
		c0.1-0.1,0.2-0.1,0.4-0.1h0l0,0c0.1,0,0.5,0,0.7,0.5c0.1,0,0.2,0,0.3,0c0.1,0,0.2,0,0.3,0.1c0.2,0.1,0.3,0.3,0.4,0.5
		c0.1,0.2,0.1,0.4-0.2,0.9c0.1,0.2,0.3,0.4,0.4,0.7c0.1,0.1,0.3,0.1,0.4,0.2c0.4,0.2,1.2,0.5,0.9,1.3c-0.1,0.4-0.5,0.5-1,0.5h0
		c0,0.4-0.1,0.8-0.4,1.1c-0.2,0.2-0.4,0.3-0.6,0.4c0.2,1.4,1,3.3,1.4,4l0,0l0,0l0.2,0.4l0,0l0,0c0,0.1,1,2.6,1.1,4.1
		c0,0.7-0.1,1.4-0.5,2.1c0.3,1.2,0.7,3.4,0.5,4.1c-0.4,1.1-0.3,4.2,0.3,4.3c0.6,0.1,1.9,0.1,2.6,0.1c0-1.2-1.3-1.2-1.4-1.8
		c0-0.4,1.5-5.7,1.5-5.7l0.2-0.4c0,0,0.3-0.5,0.3-0.4c0.2,0.1,1.1,2.7,1.1,2.7s-0.1,1,0.6,2.2c0.5,0.9,1.6,4.3,2.3,4.3
		c0.7,0,0.7,0,2.1,0c0-1.5-1.7-1.4-1.7-2.5c0-1.2-0.8-3.8-0.3-7.2c0.1,0,1.1-1,1.1-1l0.4-0.4c0,0,2.6-4.1,3.4-4.9
		c0,0,0.5-0.2,0.5-0.2s3.2,2.6,6.7,1.8c0.2,0,0.4,0.6,0.7,0.7c0.3,0.1,1.9-1.4,1.9-1.8C125.6,30.3,123.1,28.6,123.3,26.1 M80.4,19.7
		c-0.4-0.3-0.7-0.7-0.8-1.2c-0.1-0.3,0.1-0.7,0.3-0.9c0.3-0.3,0.6-0.4,0.8-0.3c0.2,0.1,0.3,0.3,0.3,0.5
		C81.1,18.6,80.9,19.2,80.4,19.7"/>
	<polygon class="st0" points="2.6,110.5 2.6,63.5 2,63.5 2,111.1 9.7,111.1 9.7,110.5 	"/>
	<polygon class="st0" points="16.4,84.5 23.2,63.5 22.8,63.5 16.2,83.8 	"/>
	<polygon class="st0" points="13.2,100.5 10.3,90.5 10.3,93.1 12.6,101.2 18.6,101.2 18.8,100.5 	"/>
	<polygon class="st0" points="22.9,110.5 22.9,89.7 22.4,91.4 22.4,111.1 29.9,111.1 29.9,110.5 	"/>
	<polygon class="st0" points="34.2,110.5 34.2,63.5 33.6,63.5 33.6,111.1 41.1,111.1 41.1,110.5 	"/>
	<path class="st0" d="M60.3,87.1c-0.2,0.2-0.5,0.3-0.8,0.4c0.1,0,0.2,0.1,0.3,0.1C60,87.5,60.2,87.3,60.3,87.1"/>
	<polygon class="st0" points="55.6,83.8 55.6,70.2 52.8,70.2 52.8,70.8 55.1,70.8 55.1,83.8 	"/>
	<polygon class="st0" points="56.4,110.5 56.4,90.8 52.8,90.8 52.8,91.4 55.8,91.4 55.8,111.1 63.3,111.1 63.3,110.5 	"/>
	<polygon class="st0" points="45.4,110.5 45.4,63.5 44.8,63.5 44.8,111.1 52.3,111.1 52.3,110.5 	"/>
	<polygon class="st0" points="76.8,77.2 76.5,80.3 77.8,94.1 78.5,94.1 	"/>
	<polygon class="st0" points="80.1,110.5 79.1,101.4 74,101.4 73.9,102 78.6,102 79.5,111.1 86.9,111.1 86.9,110.5 	"/>
	<polygon class="st0" points="65.7,110.5 70.6,63.5 70.1,63.5 65.1,111.1 72.5,111.1 72.5,110.5 	"/>
	<rect x="136.4" y="88.9" class="st0" width="5.9" height="0.6"/>
	<polygon class="st0" points="144.1,104.5 148.4,63.5 147.9,63.5 143.6,104.5 	"/>
	<polygon class="st0" points="154.4,77.1 154.1,80.1 155.6,94.2 156.3,94.2 	"/>
	<polygon class="st0" points="157.8,110.5 156.9,101.4 151.8,101.4 151.8,102 156.3,102 157.3,111.1 164.9,111.1 164.8,110.5 	"/>
	<polygon class="st0" points="144.4,110.5 143.4,110.5 129,110.5 129,63.5 128.5,63.5 128.5,111.1 142.9,111.1 143.8,111.1 
		150.2,111.1 150.3,110.5 	"/>
	<rect x="136.4" y="70.2" class="st0" width="8.5" height="0.6"/>
	<polygon class="st0" points="168.9,110.5 168.9,70.2 163.7,70.2 163.7,63.5 163.1,63.5 163.1,70.8 168.4,70.8 168.4,111.1 
		175.8,111.1 175.8,110.5 	"/>
	<rect x="176.3" y="70.2" class="st0" width="4.8" height="0.6"/>
	<path class="st0" d="M95.6,42.4l-1.5,1.5L93.6,44c0,0-0.7,0-0.9,0c-0.2,0.6-0.6,1.9,0,2.7c0.6,0.5,2.6,0.4,3.1,0.4
		c0.4,0,0.1,0.9-0.2,0.9c-0.3,0-1.9,0-1.9,0.1c-0.1,0.2,0.5,0.4,0.9,0.5c0.3,0.1,0.5,0.1,0.3,0.2c-0.2,0.1-3.9-0.2-3.6-1.8
		c-0.4,0-0.8,0.2-1,0.3c-0.2,0.1-0.4-0.2-0.2-0.3c0.2-0.2,1.5-0.9,1.5-0.9l-0.1-2c-0.3,0-0.6,0-0.9,0c-0.2-0.2-0.9-0.3-0.8-0.3
		c-1-0.4-3.4-2-4.6-3.9L85,39.4c0,0-0.5-1.5-0.2-2.6c-1.5-1.8-1.2-3.7-0.8-3.6c-2.2-1-2-3.7-1.5-5.3c0.5-1.6,4.1-0.4,5.2,1.7
		c1.2,2.2,4.1,2.5,5.1,2.1c1-0.4,1.2-1.4,1.8-1.4c0-0.2,0-0.7,0-0.7l0-0.4c0,0,0,0,0,0c0.4-4.5,2.6-6.1,2.6-6.1s-0.8-0.8-0.8-0.9
		c0.1-0.1,0.9,0.2,1,0.2c0.1-0.1-0.3-0.9-0.2-1c0.1-0.1,0.8,0.6,0.8,0.5c0.1,0-0.1-0.8,0-0.9s0.4,0.8,0.6,0.8c0.1,0,0.4-0.9,0.5-0.9
		c0.2,0,0.1,0.9,0.2,0.9c0.1,0,0.7-0.5,0.8-0.4c0.1,0.1-0.3,0.8-0.3,0.8s0.5,0.6,0.5,0.9c0,0.3,1.4,0.7,1.3,0.9
		c-0.1,0.2-1.2,0-1.2,0s0.4,0.9-0.1,1.4c-0.5,0.5-0.8,0.2-0.8-0.2c-0.3,1.8,1.5,5.4,1.5,5.4l0.2,0.4c0,0,1,2.5,1.1,3.9
		c0.2,3.4-6.5,7.3-6.5,7.3L95.6,42.4z"/>
	<path class="st0" d="M45.7,127.2c0.6,0,1.1,0.5,1.1,1.1v4.8c0,0.6-0.5,1.1-1.1,1.1h-1.9v5.8h-1.6v-12.7H45.7z M45.2,128.8h-1.4v3.7
		h1.4V128.8z"/>
	<path class="st0" d="M52,134.5h-1.4v5.4H49v-12.7h3.4c0.6,0,1.1,0.5,1.1,1.1v4.4c0,0.5-0.2,0.8-0.6,0.9c0.5,0.1,0.8,0.6,0.8,1.1
		v5.2H52V134.5z M50.6,132.9h1.2v-4h-1.2V132.9z"/>
	<polygon class="st0" points="60.3,139.9 56.1,139.9 56.1,127.2 60.2,127.2 60.2,128.8 57.7,128.8 57.7,132.3 59.5,132.3 59.5,134 
		57.7,134 57.7,138.3 60.3,138.3 	"/>
	<polygon class="st0" points="68.3,139.9 68.3,133.1 66.9,137.2 65.6,137.2 64.4,133.1 64.4,139.9 62.7,139.9 62.7,127.2 
		64.3,127.2 66.2,133.6 68.3,127.2 69.9,127.2 69.9,139.9 	"/>
	<rect x="72.4" y="127.2" class="st0" width="1.6" height="12.7"/>
	<path class="st0" d="M78.2,127.2v11.1h1.4v-11.1h1.6v11.6c0,0.6-0.5,1.1-1.1,1.1h-2.5c-0.6,0-1.1-0.5-1.1-1.1v-11.6H78.2z"/>
	<polygon class="st0" points="89.4,139.9 89.4,133.1 88,137.2 86.7,137.2 85.5,133.1 85.5,139.9 83.8,139.9 83.8,127.2 85.4,127.2 
		87.4,133.6 89.4,127.2 91,127.2 91,139.9 	"/>
	<path class="st0" d="M98.9,128.3c0-0.6,0.5-1.1,1.1-1.1h2.5c0.6,0,1.1,0.5,1.1,1.1v10.5c0,0.6-0.5,1.1-1.1,1.1l0.7,1.1h-1.6
		l-0.7-1.1H100c-0.6,0-1.1-0.5-1.1-1.1V128.3z M101.9,128.8h-1.4v9.4h1.4V128.8z"/>
	<path class="st0" d="M107.7,127.2v11.1h1.4v-11.1h1.6v11.6c0,0.6-0.5,1.1-1.1,1.1h-2.5c-0.6,0-1.1-0.5-1.1-1.1v-11.6H107.7z"/>
	<path class="st0" d="M116.6,137.4h-1.8l-0.3,2.5h-1.6l1.3-12.7h2.9l1.3,12.7h-1.6L116.6,137.4z M114.9,135.8h1.5l-0.7-6.9
		L114.9,135.8z"/>
	<polygon class="st0" points="120.5,127.2 122.1,127.2 122.1,138.3 124.1,138.3 124.1,139.9 120.5,139.9 	"/>
	<rect x="126.2" y="127.2" class="st0" width="1.6" height="12.7"/>
	<polygon class="st0" points="131.3,128.8 129.9,128.8 129.9,127.2 134.4,127.2 134.4,128.8 132.9,128.8 132.9,139.9 131.3,139.9 	
		"/>
	<polygon class="st0" points="137.6,135.7 135.7,127.2 137.4,127.2 138.5,133.2 139.5,127.2 141.2,127.2 139.3,135.7 139.3,139.9 
		137.6,139.9 	"/>
	<polygon class="st0" points="29.9,63.5 29.9,109.7 23.9,109.7 23.9,84.8 19,99.8 14.2,99.8 9.7,84.8 9.7,109.7 3.6,109.7 3.6,63.5 
		9.5,63.5 16.6,86.6 23.9,63.5 	"/>
	<polygon class="st0" points="23.9,109.7 23.9,84.8 19,99.8 14.2,99.8 9.7,84.8 9.7,109.7 3.6,109.7 3.6,63.5 9.5,63.5 16.6,86.6 
		23.9,63.5 29.9,63.5 29.9,109.7 	"/>
	<polygon class="st0" points="98.1,110.5 98.1,63.5 97.5,63.5 97.5,111.1 105.3,111.1 105.3,110.5 	"/>
	<polygon class="st0" points="112,84.5 118.7,63.5 118.3,63.5 111.8,83.8 	"/>
	<polygon class="st0" points="108.7,100.5 105.8,90.5 105.8,93.1 108.2,101.2 114.1,101.2 114.3,100.5 	"/>
	<polygon class="st0" points="118.5,110.5 118.5,89.7 117.9,91.4 117.9,111.1 125.4,111.1 125.4,110.5 	"/>
	<polygon class="st0" points="125.4,63.5 125.4,109.7 119.4,109.7 119.4,84.8 114.6,99.8 109.7,99.8 105.2,84.8 105.2,109.7 
		99.1,109.7 99.1,63.5 105,63.5 112.1,86.6 119.4,63.5 	"/>
	<polygon class="st0" points="119.4,109.7 119.4,84.8 114.6,99.8 109.7,99.8 105.2,84.8 105.2,109.7 99.1,109.7 99.1,63.5 105,63.5 
		112.1,86.6 119.4,63.5 125.4,63.5 125.4,109.7 	"/>
	<rect x="35.1" y="63.5" class="st0" width="5.9" height="46.3"/>
	<path class="st0" d="M57.3,90.1h-5v19.6h-5.9V63.5h12.2c2.2,0,4,1.9,4,4v16.1c0,1.7-0.9,2.9-2,3.2c1.8,0.4,2.8,2.2,2.8,3.9v19h-5.9
		V90.1z M52.3,84.2h4.3V69.4h-4.3V84.2z"/>
	<path class="st0" d="M80.1,100.7h-6.6l-0.9,9.1h-5.9l4.9-46.3h10.6l4.8,46.3h-5.8L80.1,100.7z M74.2,94.7h5.3l-2.6-25.3L74.2,94.7z
		"/>
	<path class="st0" d="M159.9,63.5h-10.6l-4.3,40.3H136V88.1h6.3v-5.9H136V69.4h8.9v-5.9H130v46.3h14.4h0.9h5l0.9-9.1h6.6l0.9,9.1
		h5.8L159.9,63.5z M152,94.7l2.6-25.3l2.6,25.3H152z"/>
	<polygon class="st0" points="169.9,69.4 164.6,69.4 164.6,63.5 181.2,63.5 181.2,69.4 175.9,69.4 175.9,109.7 169.9,109.7 	"/>
	<path class="st0" d="M191,63.5c-1.6,0-2.9,1.3-2.9,2.9c0,1.6,1.3,2.9,2.9,2.9c1.6,0,2.9-1.3,2.9-2.9
		C193.9,64.8,192.6,63.5,191,63.5 M191.1,68.7c-1.3,0-2.4-1-2.4-2.3c0-1.3,1-2.4,2.3-2.4c1.3,0,2.4,1,2.4,2.3
		C193.4,67.7,192.4,68.7,191.1,68.7"/>
	<path class="st0" d="M190,64.7c0.2,0,0.6-0.1,1-0.1c0.5,0,0.8,0.1,1,0.2c0.2,0.2,0.3,0.4,0.3,0.7c0,0.4-0.3,0.7-0.6,0.8v0
		c0.2,0.1,0.3,0.3,0.4,0.6c0.1,0.4,0.2,0.8,0.3,0.9l-0.7,0c0-0.1-0.1-0.4-0.2-0.7c-0.1-0.4-0.2-0.5-0.5-0.5l-0.2,0l0,1.3l-0.7,0
		L190,64.7z M190.7,66.1l0.3,0c0.4,0,0.6-0.2,0.6-0.5c0-0.3-0.2-0.4-0.5-0.4c-0.2,0-0.3,0-0.3,0L190.7,66.1z"/>
</g>
</svg>
