<?xml version="1.0" encoding="utf-8"?>
<!-- Generator: Adobe Illustrator 21.1.0, SVG Export Plug-In . SVG Version: 6.00 Build 0)  -->
<svg version="1.1" id="Layer_1" xmlns="http://www.w3.org/2000/svg" xmlns:xlink="http://www.w3.org/1999/xlink" x="0px" y="0px"
	 viewBox="0 0 180 20" style="enable-background:new 0 0 180 20;" xml:space="preserve">
<g>
	<g>
		<path style="fill:#43474F;" d="M89.6,18.7c0.7,0,1.3-0.3,1.7-0.7c0.5-0.5,0.7-1.1,0.7-1.7c0-0.6-0.3-1.2-0.7-1.7
			c-0.5-0.5-1-0.7-1.7-0.7s-1.3,0.3-1.7,0.7c-0.5,0.5-0.7,1-0.7,1.7c0,0.7,0.2,1.3,0.7,1.7C88.3,18.5,88.9,18.7,89.6,18.7L89.6,18.7
			z M87.7,12.9c0.2-0.1,0.4-0.2,0.8-0.3c0.4-0.1,0.8-0.1,1-0.1c-0.7-1.6-1.1-3.1-1.2-4.8c-0.1-1.6,0.3-2.9,0.9-4
			c-0.2,0.7-0.3,1.5-0.4,2.3c-0.1,0.9,0,1.6,0.1,2.4c0.1,0.8,0.3,1.6,0.6,2.3c0.3,0.7,0.7,1.4,1.2,1.9c-0.1-0.9,0-1.8,0.3-2.5
			c0.2-0.7,0.6-1.3,1.1-1.8c0.5-0.4,1.1-0.7,1.8-0.8c0.7-0.1,1.5,0.1,2.4,0.4c0-0.7-0.2-1.2-0.6-1.7c-0.4-0.4-1-0.7-1.6-0.8
			c-0.6-0.1-1.2,0-1.9,0.3c-0.7,0.3-1.3,0.8-1.7,1.6c-0.1-0.3-0.2-0.6-0.1-1c0.1-0.3,0.2-0.6,0.3-0.9c0.2-0.3,0.3-0.6,0.5-1
			c0.2-0.3,0.3-0.6,0.3-0.9c0.1-0.6,0-1.2-0.3-1.7c-0.3-0.5-0.6-1-1.1-1.3c-0.5,0.1-1,0.5-1.2,1c-0.3,0.5-0.5,1.1-0.8,1.6
			c-0.1,0.3-0.2,0.7-0.2,1.1c0,0.4,0,0.8,0,1.2c0,0.4,0,0.7,0,0.9c0,0.3-0.1,0.4-0.3,0.5c-0.2,0-0.3,0-0.4-0.1
			c-0.1-0.1-0.2-0.3-0.3-0.4c-0.1-0.2-0.3-0.4-0.4-0.6c-0.2-0.2-0.3-0.4-0.6-0.5c-0.6-0.3-1.1-0.4-1.7-0.2c-0.6,0.2-1,0.6-1.4,1.3
			c1,0.3,1.7,0.8,2.3,1.3c0.6,0.5,1.1,1.1,1.5,1.6c0.4,0.6,0.7,1.2,0.8,1.8C87.6,11.9,87.7,12.4,87.7,12.9L87.7,12.9z M73.4,18.6
			c0.3-0.5,0.6-1,1-1.4c0.3-0.4,0.8-0.8,1.3-1.2c0.5-0.3,1.2-0.6,2.1-0.9c0.9-0.2,1.9-0.3,3.1-0.4c1,0,1.9,0.1,2.6,0.4
			c0.7,0.3,1.5,0.8,2.3,1.2c-0.1-0.2-0.1-0.3-0.1-0.6c0-0.3,0.1-0.4,0.1-0.6c-0.7-0.5-1.6-1-2.5-1.4c-1-0.4-2-0.6-3.2-0.6
			c-1.3,0-2.5,0.1-3.8,0.5c-1.2,0.3-2.2,0.8-2.9,1.4c0.2-0.6,0.8-1.1,1.7-1.5c0.9-0.4,1.9-0.8,3.2-0.9c1.2-0.2,2.6-0.1,4,0.1
			c1.4,0.2,2.8,0.6,4.1,1.3c-0.9-0.8-1.7-1.4-2.7-1.7c-1-0.3-2-0.5-3.1-0.5c-1.1,0-2.2,0.1-3.3,0.2c-1.1,0.2-2.2,0.4-3.3,0.6
			c-1.1,0.3-2.2,0.5-3.3,0.7c-1,0.2-2,0.3-2.9,0.3c-0.2,0.4-0.2,1,0.1,1.6c0.3,0.6,0.6,1.1,1.1,1.5c0.3,0.2,0.6,0.3,0.9,0.3
			c0.3,0,0.6-0.1,1-0.2c0.3-0.1,0.7-0.2,1-0.2c0.3-0.1,0.6,0,0.9,0.1c-0.3,0.3-0.4,0.8-0.3,1.2C72.6,18.3,72.9,18.6,73.4,18.6
			L73.4,18.6z M69.3,17.4c-0.5-0.3-1-0.8-1.4-1.4c-0.4-0.6-0.6-1.1-0.5-1.6c0-0.4,0.1-0.8,0.3-1.1c0.2-0.3,0.4-0.7,0.7-1
			c0.2-0.3,0.4-0.6,0.6-0.9c0.2-0.3,0.3-0.6,0.2-1c-0.1-0.3-0.3-0.6-0.5-0.8c-0.3-0.2-0.6-0.3-1-0.4c-0.4-0.1-0.8-0.1-1.2,0
			c-0.4,0.1-0.8,0.2-1.1,0.4c-0.6,0.4-1.1,0.9-1.4,1.6c-0.3,0.7-0.2,1.4,0.3,2.2c0.1-0.5,0.3-1,0.5-1.4c0.3-0.5,0.5-0.9,0.9-1.2
			c0.4-0.3,0.7-0.6,1.1-0.7c0.4-0.1,0.8-0.1,1.2,0.2c-0.8,0.1-1.5,0.4-2.1,1.1c-0.6,0.7-0.9,1.5-0.9,2.5c0,0.5,0.1,1,0.4,1.4
			c0.3,0.4,0.6,0.9,1,1.2c0.4,0.3,0.9,0.6,1.4,0.8C68.2,17.5,68.7,17.6,69.3,17.4L69.3,17.4z M89.8,17.7c-0.3,0-0.4-0.1-0.4-0.3
			c0-0.3,0.1-0.4,0.4-0.4c0.2,0,0.3,0.1,0.3,0.4C90.1,17.6,90,17.7,89.8,17.7L89.8,17.7z"/>
		<path style="fill:#43474F;" d="M176.6,18c0.7,0,1.3-0.3,1.7-0.7c0.5-0.5,0.7-1.1,0.7-1.7c0-0.6-0.3-1.2-0.7-1.7
			c-0.5-0.5-1-0.7-1.7-0.7c-0.7,0-1.3,0.3-1.7,0.7c-0.5,0.5-0.7,1-0.7,1.7c0,0.7,0.2,1.3,0.7,1.7C175.3,17.8,175.9,18,176.6,18
			L176.6,18z M176.8,16.9c-0.3,0-0.4-0.1-0.4-0.3c0-0.3,0.1-0.4,0.4-0.4c0.2,0,0.3,0.1,0.3,0.4C177.1,16.8,177,16.9,176.8,16.9
			L176.8,16.9z"/>
		<path style="fill:#43474F;" d="M3.1,17.5c-0.7,0-1.2-0.2-1.7-0.7c-0.5-0.5-0.7-1-0.7-1.7c0-0.6,0.2-1.2,0.7-1.7
			c0.5-0.5,1-0.7,1.7-0.7c0.7,0,1.3,0.2,1.8,0.7c0.4,0.5,0.7,1,0.7,1.7c0,0.7-0.3,1.2-0.7,1.7C4.4,17.2,3.8,17.5,3.1,17.5L3.1,17.5z
			 M3,16.4c0.3,0,0.4-0.1,0.4-0.3c0-0.3-0.1-0.4-0.4-0.4c-0.2,0-0.3,0.1-0.3,0.4C2.7,16.3,2.8,16.4,3,16.4L3,16.4z"/>
		<path style="fill:#43474F;" d="M105.7,18.6c-0.3-0.5-0.6-0.9-1-1.4c-0.3-0.4-0.8-0.8-1.3-1.2c-0.6-0.3-1.2-0.6-2.1-0.9
			c-0.8-0.2-1.9-0.3-3.1-0.4c-1,0-1.9,0.1-2.6,0.5c-0.7,0.3-1.5,0.7-2.3,1.2c0.1-0.2,0.1-0.3,0.1-0.6c0-0.2-0.1-0.4-0.1-0.6
			c0.7-0.5,1.5-1,2.5-1.5c1-0.4,2-0.6,3.2-0.6c1.2,0,2.5,0.1,3.7,0.5c1.3,0.3,2.2,0.8,2.9,1.4c-0.2-0.6-0.8-1.1-1.6-1.6
			c-0.9-0.4-1.9-0.7-3.2-0.9c-1.2-0.1-2.6-0.1-4,0.1c-1.4,0.2-2.8,0.6-4.1,1.3c0.8-0.8,1.7-1.4,2.7-1.7c1-0.3,2-0.5,3.1-0.5
			c1.1,0,2.2,0.1,3.3,0.2c1.1,0.2,2.2,0.4,3.3,0.6c1.1,0.2,2.2,0.4,3.2,0.6c1.1,0.2,2.1,0.3,2.9,0.3c0.2,0.5,0.2,1-0.1,1.6
			c-0.3,0.6-0.6,1.1-1.1,1.5c-0.3,0.2-0.6,0.3-0.9,0.3c-0.3,0-0.6-0.1-1-0.2c-0.3-0.1-0.6-0.2-1-0.2s-0.6,0-0.9,0.1
			c0.3,0.3,0.4,0.7,0.3,1.1C106.6,18.4,106.2,18.6,105.7,18.6L105.7,18.6z M109.8,17.4c0.5-0.3,1-0.8,1.4-1.4
			c0.4-0.6,0.6-1.1,0.5-1.6c0-0.4-0.1-0.8-0.3-1.1c-0.2-0.3-0.4-0.7-0.6-1c-0.2-0.3-0.4-0.6-0.6-0.9c-0.2-0.3-0.3-0.6-0.2-1
			c0.1-0.3,0.2-0.6,0.5-0.8c0.3-0.2,0.6-0.3,1-0.4c0.4-0.1,0.8-0.1,1.2,0c0.4,0.1,0.8,0.2,1.1,0.4c0.7,0.4,1.1,1,1.4,1.7
			c0.3,0.7,0.2,1.4-0.3,2.1c-0.1-0.5-0.3-1-0.5-1.4c-0.3-0.5-0.5-0.9-0.9-1.2c-0.3-0.3-0.7-0.5-1.1-0.7c-0.4-0.1-0.8-0.1-1.1,0.2
			c0.8,0.1,1.5,0.4,2.1,1.1c0.6,0.7,0.9,1.5,0.9,2.5c0,0.5-0.1,1-0.4,1.4c-0.3,0.5-0.6,0.9-1,1.2c-0.4,0.3-0.9,0.6-1.4,0.8
			C111,17.6,110.4,17.6,109.8,17.4L109.8,17.4z"/>
		<path style="fill-rule:evenodd;clip-rule:evenodd;fill:#43474F;" d="M64.5,16.5L3.1,15.6v-0.5l60.6-1
			C63.4,14.7,63.9,15.7,64.5,16.5L64.5,16.5z"/>
		<path style="fill-rule:evenodd;clip-rule:evenodd;fill:#43474F;" d="M115.3,16.5l61.3-0.9v-0.5l-60.6-1
			C116.3,14.7,115.9,15.7,115.3,16.5L115.3,16.5z"/>
	</g>
</g>
</svg>
