<?xml version="1.0" encoding="utf-8"?>
<!-- Generator: Adobe Illustrator 21.1.0, SVG Export Plug-In . SVG Version: 6.00 Build 0)  -->
<svg version="1.1" id="Layer_1" xmlns="http://www.w3.org/2000/svg" xmlns:xlink="http://www.w3.org/1999/xlink" x="0px" y="0px"
	 viewBox="0 0 184 24" style="enable-background:new 0 0 184 24;" xml:space="preserve">
<style type="text/css">
	.st0{fill:#FFFFFF;}
	.st1{fill-rule:evenodd;clip-rule:evenodd;fill:#FFFFFF;}
</style>
<g>
	<g>
		<path class="st0" d="M92.1,20.7c0.7,0,1.3-0.3,1.7-0.7c0.5-0.5,0.7-1.1,0.7-1.7c0-0.6-0.3-1.2-0.7-1.7c-0.5-0.5-1-0.7-1.7-0.7
			s-1.3,0.3-1.7,0.7c-0.5,0.5-0.7,1-0.7,1.7c0,0.7,0.2,1.3,0.7,1.7C90.8,20.5,91.4,20.7,92.1,20.7L92.1,20.7z M90.2,14.9
			c0.2-0.1,0.4-0.2,0.8-0.3c0.4-0.1,0.8-0.1,1-0.1c-0.7-1.6-1.1-3.1-1.2-4.8c-0.1-1.6,0.3-2.9,0.9-4c-0.2,0.7-0.3,1.5-0.4,2.3
			c-0.1,0.9,0,1.6,0.1,2.4c0.1,0.8,0.3,1.6,0.6,2.3c0.3,0.7,0.7,1.4,1.2,1.9c-0.1-0.9,0-1.8,0.3-2.5c0.2-0.7,0.6-1.3,1.1-1.8
			c0.5-0.4,1.1-0.7,1.8-0.8c0.7-0.1,1.5,0.1,2.4,0.4c0-0.7-0.2-1.2-0.6-1.7c-0.4-0.4-1-0.7-1.6-0.8c-0.6-0.1-1.2,0-1.9,0.3
			c-0.7,0.3-1.3,0.8-1.7,1.6c-0.1-0.3-0.2-0.6-0.1-1C93,8.3,93.1,8,93.2,7.6c0.2-0.3,0.3-0.6,0.5-1C93.9,6.4,94,6.1,94,5.8
			c0.1-0.6,0-1.2-0.3-1.7c-0.3-0.5-0.6-1-1.1-1.3c-0.5,0.1-1,0.5-1.2,1c-0.3,0.5-0.5,1.1-0.8,1.6c-0.1,0.3-0.2,0.7-0.2,1.1
			c0,0.4,0,0.8,0,1.2c0,0.4,0,0.7,0,0.9C90.2,8.9,90.1,9,90,9c-0.2,0-0.3,0-0.4-0.1c-0.1-0.1-0.2-0.3-0.3-0.4
			c-0.1-0.2-0.3-0.4-0.4-0.6c-0.2-0.2-0.3-0.4-0.6-0.5c-0.6-0.3-1.1-0.4-1.7-0.2c-0.6,0.2-1,0.6-1.4,1.3c1,0.3,1.7,0.8,2.3,1.3
			c0.6,0.5,1.1,1.1,1.5,1.6c0.4,0.6,0.7,1.2,0.8,1.8C90.1,13.9,90.2,14.4,90.2,14.9L90.2,14.9z M75.9,20.6c0.3-0.5,0.6-1,1-1.4
			c0.3-0.4,0.8-0.8,1.3-1.2c0.5-0.3,1.2-0.6,2.1-0.9c0.9-0.2,1.9-0.3,3.1-0.4c1,0,1.9,0.1,2.6,0.4c0.7,0.3,1.5,0.8,2.3,1.2
			c-0.1-0.2-0.1-0.3-0.1-0.6c0-0.3,0.1-0.4,0.1-0.6c-0.7-0.5-1.6-1-2.5-1.4c-1-0.4-2-0.6-3.2-0.6c-1.3,0-2.5,0.1-3.8,0.5
			c-1.2,0.3-2.2,0.8-2.9,1.4c0.2-0.6,0.8-1.1,1.7-1.5c0.9-0.4,1.9-0.8,3.2-0.9c1.2-0.2,2.6-0.1,4,0.1c1.4,0.2,2.8,0.6,4.1,1.3
			c-0.9-0.8-1.7-1.4-2.7-1.7c-1-0.3-2-0.5-3.1-0.5c-1.1,0-2.2,0.1-3.3,0.2c-1.1,0.2-2.2,0.4-3.3,0.6c-1.1,0.3-2.2,0.5-3.3,0.7
			c-1,0.2-2,0.3-2.9,0.3c-0.2,0.4-0.2,1,0.1,1.6c0.3,0.6,0.6,1.1,1.1,1.5c0.3,0.2,0.6,0.3,0.9,0.3c0.3,0,0.6-0.1,1-0.2
			c0.3-0.1,0.7-0.2,1-0.2c0.3-0.1,0.6,0,0.9,0.1c-0.3,0.3-0.4,0.8-0.3,1.2C75,20.3,75.4,20.6,75.9,20.6L75.9,20.6z M71.8,19.4
			c-0.5-0.3-1-0.8-1.4-1.4c-0.4-0.6-0.6-1.1-0.5-1.6c0-0.4,0.1-0.8,0.3-1.1c0.2-0.3,0.4-0.7,0.7-1c0.2-0.3,0.4-0.6,0.6-0.9
			c0.2-0.3,0.3-0.6,0.2-1c-0.1-0.3-0.3-0.6-0.5-0.8c-0.3-0.2-0.6-0.3-1-0.4c-0.4-0.1-0.8-0.1-1.2,0c-0.4,0.1-0.8,0.2-1.1,0.4
			c-0.6,0.4-1.1,0.9-1.4,1.6c-0.3,0.7-0.2,1.4,0.3,2.2c0.1-0.5,0.3-1,0.5-1.4c0.3-0.5,0.5-0.9,0.9-1.2c0.4-0.3,0.7-0.6,1.1-0.7
			c0.4-0.1,0.8-0.1,1.2,0.2c-0.8,0.1-1.5,0.4-2.1,1.1c-0.6,0.7-0.9,1.5-0.9,2.5c0,0.5,0.1,1,0.4,1.4c0.3,0.4,0.6,0.9,1,1.2
			c0.4,0.3,0.9,0.6,1.4,0.8C70.6,19.5,71.2,19.6,71.8,19.4L71.8,19.4z M92.2,19.7c-0.3,0-0.4-0.1-0.4-0.3c0-0.3,0.1-0.4,0.4-0.4
			c0.2,0,0.3,0.1,0.3,0.4C92.5,19.6,92.4,19.7,92.2,19.7L92.2,19.7z"/>
		<path class="st0" d="M179.1,20c0.7,0,1.3-0.3,1.7-0.7c0.5-0.5,0.7-1.1,0.7-1.7c0-0.6-0.3-1.2-0.7-1.7c-0.5-0.5-1-0.7-1.7-0.7
			c-0.7,0-1.3,0.3-1.7,0.7c-0.5,0.5-0.7,1-0.7,1.7c0,0.7,0.2,1.3,0.7,1.7C177.8,19.8,178.4,20,179.1,20L179.1,20z M179.2,18.9
			c-0.3,0-0.4-0.1-0.4-0.3c0-0.3,0.1-0.4,0.4-0.4c0.2,0,0.3,0.1,0.3,0.4C179.5,18.8,179.4,18.9,179.2,18.9L179.2,18.9z"/>
		<path class="st0" d="M5.6,19.5c-0.7,0-1.2-0.2-1.7-0.7c-0.5-0.5-0.7-1-0.7-1.7c0-0.6,0.2-1.2,0.7-1.7c0.5-0.5,1-0.7,1.7-0.7
			c0.7,0,1.3,0.2,1.8,0.7c0.4,0.5,0.7,1,0.7,1.7c0,0.7-0.3,1.2-0.7,1.7C6.9,19.2,6.3,19.5,5.6,19.5L5.6,19.5z M5.5,18.4
			c0.3,0,0.4-0.1,0.4-0.3c0-0.3-0.1-0.4-0.4-0.4c-0.2,0-0.3,0.1-0.3,0.4C5.1,18.3,5.3,18.4,5.5,18.4L5.5,18.4z"/>
		<path class="st0" d="M108.1,20.6c-0.3-0.5-0.6-0.9-1-1.4c-0.3-0.4-0.8-0.8-1.3-1.2c-0.6-0.3-1.2-0.6-2.1-0.9
			c-0.8-0.2-1.9-0.3-3.1-0.4c-1,0-1.9,0.1-2.6,0.5c-0.7,0.3-1.5,0.7-2.3,1.2c0.1-0.2,0.1-0.3,0.1-0.6c0-0.2-0.1-0.4-0.1-0.6
			c0.7-0.5,1.5-1,2.5-1.5c1-0.4,2-0.6,3.2-0.6c1.2,0,2.5,0.1,3.7,0.5c1.3,0.3,2.2,0.8,2.9,1.4c-0.2-0.6-0.8-1.1-1.6-1.6
			c-0.9-0.4-1.9-0.7-3.2-0.9c-1.2-0.1-2.6-0.1-4,0.1c-1.4,0.2-2.8,0.6-4.1,1.3c0.8-0.8,1.7-1.4,2.7-1.7c1-0.3,2-0.5,3.1-0.5
			c1.1,0,2.2,0.1,3.3,0.2c1.1,0.2,2.2,0.4,3.3,0.6c1.1,0.2,2.2,0.4,3.2,0.6c1.1,0.2,2.1,0.3,2.9,0.3c0.2,0.5,0.2,1-0.1,1.6
			c-0.3,0.6-0.6,1.1-1.1,1.5c-0.3,0.2-0.6,0.3-0.9,0.3c-0.3,0-0.6-0.1-1-0.2c-0.3-0.1-0.6-0.2-1-0.2c-0.3-0.1-0.6,0-0.9,0.1
			c0.3,0.3,0.4,0.7,0.3,1.1C109,20.4,108.7,20.6,108.1,20.6L108.1,20.6z M112.3,19.4c0.5-0.3,1-0.8,1.4-1.4c0.4-0.6,0.6-1.1,0.5-1.6
			c0-0.4-0.1-0.8-0.3-1.1c-0.2-0.3-0.4-0.7-0.6-1c-0.2-0.3-0.4-0.6-0.6-0.9c-0.2-0.3-0.3-0.6-0.2-1c0.1-0.3,0.2-0.6,0.5-0.8
			c0.3-0.2,0.6-0.3,1-0.4c0.4-0.1,0.8-0.1,1.2,0c0.4,0.1,0.8,0.2,1.1,0.4c0.7,0.4,1.1,1,1.4,1.7c0.3,0.7,0.2,1.4-0.3,2.1
			c-0.1-0.5-0.3-1-0.5-1.4c-0.3-0.5-0.5-0.9-0.9-1.2c-0.3-0.3-0.7-0.5-1.1-0.7c-0.4-0.1-0.8-0.1-1.1,0.2c0.8,0.1,1.5,0.4,2.1,1.1
			c0.6,0.7,0.9,1.5,0.9,2.5c0,0.5-0.1,1-0.4,1.4c-0.3,0.5-0.6,0.9-1,1.2c-0.4,0.3-0.9,0.6-1.4,0.8C113.4,19.6,112.9,19.6,112.3,19.4
			L112.3,19.4z"/>
		<path class="st1" d="M66.9,18.5L5.6,17.6v-0.5l60.6-1C65.9,16.7,66.4,17.7,66.9,18.5L66.9,18.5z"/>
		<path class="st1" d="M117.8,18.5l61.3-0.9v-0.5l-60.6-1C118.8,16.7,118.3,17.7,117.8,18.5L117.8,18.5z"/>
	</g>
</g>
</svg>
