<?xml version="1.0" encoding="utf-8"?>
<!-- Generator: Adobe Illustrator 21.1.0, SVG Export Plug-In . SVG Version: 6.00 Build 0)  -->
<svg version="1.1" id="Layer_1" xmlns="http://www.w3.org/2000/svg" xmlns:xlink="http://www.w3.org/1999/xlink" x="0px" y="0px"
	 viewBox="0 0 386 25" style="enable-background:new 0 0 386 25;" xml:space="preserve">
<path style="fill:#78909C;" d="M214.2,15.2l1.9-1.9l167.9,0l-168-1.6l-1.9-1.9l-1.9,1.9l-5,0l-1.8-1.9l-1.8,1.8l-4.7,0l0,0L190,2.4
	l-9.2,9.1l-5.8,0l-1.9-1.9l-1.9,1.9l-4.9,0l-1.9-1.9l-1.9,1.9L1.9,11.3L162.4,13l1.9,2l1.9-1.9l4.9,0.1L173,15l1.9-1.9l5.8,0.1l0,0
	l9.1,9.2l9.2-9.1l0,0h4.6l1.8,1.9l1.9-1.9h4.9L214.2,15.2z M192.1,13.3l-2.2,2.1l-2.1-2.2l-0.8-0.9l0.9-0.9l2.2-2.1l2.1,2.2l0.9,0.9
	L192.1,13.3z"/>
</svg>
