<?xml version="1.0" encoding="utf-8"?>
<!-- Generator: Adobe Illustrator 18.0.0, SVG Export Plug-In . SVG Version: 6.00 Build 0)  -->
<!DOCTYPE svg PUBLIC "-//W3C//DTD SVG 1.1//EN" "http://www.w3.org/Graphics/SVG/1.1/DTD/svg11.dtd">
<svg version="1.1" id="Слой_1" xmlns="http://www.w3.org/2000/svg" xmlns:xlink="http://www.w3.org/1999/xlink" x="0px" y="0px"
	 viewBox="0 0 32 32" enable-background="new 0 0 32 32" xml:space="preserve">
<g>
	<g>
		<path fill="#7A8079" d="M20.4,19.7c0,0-0.1,0-0.1,0.1c1.9,0.9,4.8,1.9,7.7,1.9c0.8-1.4,1.5-2.8,2-4.4c-2.7,1.1-5.5,1.6-8.5,1.8
			C21.1,19.3,20.8,19.5,20.4,19.7z"/>
		<path fill="#7A8079" d="M23.2,17.9c2.7-0.4,5.7-1.5,7.4-2.6c0.4-1.8,0.7-3.7,0.7-5.7c0-0.8,0-1.6-0.1-2.4
			C29.5,11.5,26.7,15.1,23.2,17.9z"/>
		<path fill="#7A8079" d="M27.5,22.4c-3.2,0-6.2-0.6-9-1.7c-1.7-0.7-3.3-1.5-4.7-2.5c0,0,0,0,0,0c-5.9-4-10-10.5-10.8-18
			C1.9,2.9,1.4,5.9,1.4,9c0,0.4,0,0.9,0,1.3c0,0.3,0,0.6,0.1,0.9c0.1,1,0.2,2,0.4,2.9c0.1,0.3,0,0.2,0.1,0.3
			c1.7,1.8,5.3,4.1,6.2,4.7c-0.9-0.2-4.3-1.8-5.6-2.7c0.8,2.5,1.9,4.9,3.5,7c1.1,0.5,3.3,1.5,4.1,1.8c-1-0.1-2.4-0.5-3.3-0.8
			c2.6,3.2,5.9,5.8,9.8,7.4c0.1,0.1,0.3,0.1,0.4,0.2c0.7-0.3,1.4-0.7,2.1-1.1c3.5-2.1,6.4-5,8.5-8.4C27.6,22.4,27.5,22.4,27.5,22.4z
			"/>
	</g>
</g>
</svg>
